/* XPM */
static char * arrow_up_disabled_xpm[] = {
"16 16 11 1",
" 	c None",
".	c #8B8B8B",
"+	c #C0C0C0",
"@	c #BDBDBD",
"#	c #BABABA",
"$	c #DADADA",
"%	c #B5B5B5",
"&	c #B1B1B1",
"*	c #ACACAC",
"=	c #A7A7A7",
"-	c #D1D1D1",
"                ",
"                ",
"                ",
"       .        ",
"      .+.       ",
"     .@@@.      ",
"    .#####.     ",
"   .$$%%%$$.    ",
"   ...&&&...    ",
"     .***.      ",
"     .===.      ",
"     .---.      ",
"     .....      ",
"                ",
"                ",
"                "};
