/* XPM */
static char * arrow_down_disabled_xpm[] = {
"16 16 13 1",
" 	c None",
".	c #8B8B8B",
"+	c #C0C0C0",
"@	c #BDBDBD",
"#	c #BABABA",
"$	c #B5B5B5",
"%	c #D0D0D0",
"&	c #B1B1B1",
"*	c #CDCDCD",
"=	c #ACACAC",
"-	c #CACACA",
";	c #A7A7A7",
">	c #C8C8C8",
"                ",
"                ",
"                ",
"     .....      ",
"     .+++.      ",
"     .@@@.      ",
"     .###.      ",
"   ...$$$...    ",
"   .%&&&&&%.    ",
"    .*===*.     ",
"     .-;-.      ",
"      .>.       ",
"       .        ",
"                ",
"                ",
"                "};
