/* XPM */
static char * delete_active_xpm[] = {
"16 16 14 1",
" 	c None",
".	c #B86464",
"+	c #FF8181",
"@	c #FDB3B3",
"#	c #FC7E7E",
"$	c #FBB0B0",
"%	c #F87979",
"&	c #F37373",
"*	c #ED6D6D",
"=	c #E86666",
"-	c #F3A1A1",
";	c #E36060",
">	c #F19C9C",
",	c #EE9898",
"                ",
"                ",
"                ",
"    ..    ..    ",
"   .++.  .++.   ",
"   .@##..##@.   ",
"    .$%%%%$.    ",
"     .&&&&.     ",
"     .****.     ",
"    .==--==.    ",
"   .;;>..>;;.   ",
"   .,,.  .,,.   ",
"    ..    ..    ",
"                ",
"                ",
"                "};
