/* XPM */
static char * play_active_xpm[] = {
"16 16 81 1",
" 	c None",
".	c #6BA1DB",
"+	c #7DAFE1",
"@	c #659ED9",
"#	c #A5DFF6",
"$	c #95DFF7",
"%	c #85D9F5",
"&	c #6AA4DC",
"*	c #94DFF6",
"=	c #81D5F3",
"-	c #83D6F3",
";	c #4783CD",
">	c #92DBF5",
",	c #7ED1F1",
"'	c #7FD1F1",
")	c #83D8F9",
"!	c #7FD2F2",
"~	c #69ABDF",
"{	c #7ECEEF",
"]	c #7DCEF0",
"^	c #86D8FB",
"/	c #3F494E",
"(	c #73AFC8",
"_	c #82D5F8",
":	c #7CCDEF",
"<	c #76C1EA",
"[	c #78C8EE",
"}	c #79C8EE",
"|	c #87D5FB",
"1	c #34302E",
"2	c #363332",
"3	c #4B585E",
"4	c #76ADC7",
"5	c #81D0F6",
"6	c #73C1EB",
"7	c #6FBDE9",
"8	c #70BDE9",
"9	c #83CDF6",
"0	c #3D3937",
"a	c #424242",
"b	c #3C3734",
"c	c #67818F",
"d	c #73C0EC",
"e	c #68B1E3",
"f	c #65AFE3",
"g	c #65B0E3",
"h	c #7FC2F1",
"i	c #474442",
"j	c #494745",
"k	c #5D676F",
"l	c #7AAACC",
"m	c #70B8EA",
"n	c #64AFE3",
"o	c #5593D3",
"p	c #5FA8E0",
"q	c #7CBCEE",
"r	c #5F6468",
"s	c #7EA9C9",
"t	c #6EB3E8",
"u	c #5DA7E0",
"v	c #3867BA",
"w	c #68B0E4",
"x	c #59A0DD",
"y	c #5EA3DE",
"z	c #6FB0E6",
"A	c #579FDC",
"B	c #5AA1DD",
"C	c #3868BA",
"D	c #477DC5",
"E	c #62A9E0",
"F	c #549AD9",
"G	c #559BDA",
"H	c #4272BF",
"I	c #67AAE0",
"J	c #5CA1DD",
"K	c #5397D9",
"L	c #324D91",
"M	c #4572B8",
"N	c #4E81C5",
"O	c #4E80C5",
"P	c #334D90",
"                ",
"                ",
"      .++.      ",
"    @#$%%$#@    ",
"   &*=----=*&   ",
"  ;>,')'!!!,>;  ",
"  ~{]^/(_:]]{~  ",
"  <[}|12345[[<  ",
"  67890aabcd76  ",
"  efghijklmnfe  ",
"  oppqrstupppo  ",
"  vwxyzABBBxwC  ",
"   DEFGGGGFED   ",
"    HIJKKJIH    ",
"     LMNOMP     ",
"                "};
