/* XPM */
static char * save_active_xpm[] = {
"16 16 26 1",
" 	c None",
".	c #638DA9",
"+	c #5B8DAF",
"@	c #AEAEAE",
"#	c #D3EDFF",
"$	c #9FBED0",
"%	c #FDFDFD",
"&	c #B5BAC1",
"*	c #ADDDFD",
"=	c #F8F8F8",
"-	c #808792",
";	c #ABDAFD",
">	c #F4F4F4",
",	c #A9D7FA",
"'	c #A6D4F9",
")	c #90C9F7",
"!	c #A4D1F7",
"~	c #A1CEF5",
"{	c #9DCBF3",
"]	c #FBFBFB",
"^	c #C2C2C2",
"/	c #9CC9F1",
"(	c #9AC7F0",
"_	c #F5F5F5",
":	c #C2DFF6",
"<	c #F3F3F3",
"                ",
" .+.@@@@@@@.    ",
" +#$%%%%&&%$+   ",
" +*.====--=.*+  ",
" +;.>>>>-->.;+  ",
" +,.........,+  ",
" +')))))))))'+  ",
" +!.........!+  ",
" +~.%%%%%%%.~+  ",
" +{.]^^^^^].{+  ",
" +/.=======./+  ",
" +(._^^^^^_.(+  ",
" +:.<<<<<<<.:+  ",
" .+.@@@@@@@.+.  ",
"                ",
"                "};
