/* XPM */
static char * stop_active_xpm[] = {
"16 16 29 1",
" 	c None",
".	c #B93000",
"+	c #B72F00",
"@	c #B83304",
"#	c #EAA18E",
"$	c #EAA28E",
"%	c #B33508",
"&	c #E1785B",
"*	c #DF7356",
"=	c #AE3408",
"-	c #E17456",
";	c #DF6E50",
">	c #A93208",
",	c #E17254",
"'	c #DE6D4E",
")	c #A4350C",
"!	c #D94E29",
"~	c #D64A25",
"{	c #9F330B",
"]	c #D84A25",
"^	c #D64622",
"/	c #9B320C",
"(	c #D8461F",
"_	c #D5431D",
":	c #98300A",
"<	c #E15427",
"[	c #DF5426",
"}	c #942D09",
"|	c #922C09",
"                ",
"                ",
"                ",
"    .++++++.    ",
"   @#$$$$$$#@   ",
"   %&******&%   ",
"   =-;;;;;;-=   ",
"   >,'''''',>   ",
"   )!~~~~~~!)   ",
"   {]^^^^^^]{   ",
"   /(______(/   ",
"   :<[[[[[[<:   ",
"    }||||||}    ",
"                ",
"                ",
"                "};
