/* XPM */
static const char * accept_xpm[] = {
"16 16 144 2",
"  	c None",
"! 	c black",
"# 	c #5DC43A",
"$ 	c #5AC138",
"% 	c #53BC30",
"& 	c #51BA2C",
"' 	c #51B82A",
"( 	c #51B62A",
") 	c #58C135",
"* 	c #73C158",
"+ 	c #A2D795",
", 	c #ADDCA4",
"- 	c #A0D694",
". 	c #69B84F",
"0 	c #41AA1E",
"1 	c #54BF33",
"2 	c #8FCE7E",
"3 	c #B6E1AE",
"4 	c #9CD891",
"5 	c #82CE76",
"6 	c #B4E1AD",
"7 	c #8AC877",
"8 	c #319C1C",
"9 	c #54BD33",
": 	c #79CC6C",
"; 	c #75CA69",
"< 	c #71C867",
"= 	c #73C867",
"> 	c #74C867",
"? 	c #78C96A",
"@ 	c #B3DFAB",
"A 	c #88C375",
"B 	c #2C951B",
"C 	c #58BD33",
"D 	c #6FBE56",
"E 	c #6FC764",
"F 	c #6DC462",
"G 	c #6DC361",
"H 	c #70C362",
"I 	c #BDE3B5",
"J 	c #7DC76E",
"K 	c #B4DFAB",
"L 	c #5DA847",
"M 	c #258E1B",
"N 	c #53BA2C",
"O 	c #A0D794",
"P 	c #9AD790",
"Q 	c #75C968",
"R 	c #6EC563",
"S 	c #6DC360",
"T 	c #6EC260",
"U 	c #6EC160",
"V 	c #BFE4B8",
"W 	c white",
"X 	c #E6F4E3",
"Y 	c #98D18A",
"Z 	c #9CCE8A",
"[ 	c #1F871B",
"] 	c #4AB325",
"^ 	c #B0DDA6",
"_ 	c #7FCC71",
"` 	c #72C765",
"a 	c #B6E1AF",
"b 	c #D6EED2",
"c 	c #6FC062",
"d 	c #BEE3B7",
"e 	c #FCFDFB",
"f 	c #98D08B",
"g 	c #7DC068",
"h 	c #ADD7A0",
"i 	c #1D7E1A",
"j 	c #41AC1E",
"k 	c #AEDCA5",
"l 	c #7ECA6F",
"m 	c #7FCA72",
"n 	c #F1F9F0",
"o 	c #EDF7EB",
"p 	c #95CD87",
"q 	c #70B85A",
"r 	c #7CBD66",
"s 	c #AED79F",
"t 	c #1D791A",
"u 	c #41A81E",
"v 	c #9ED290",
"w 	c #99D48C",
"x 	c #73C263",
"y 	c #86C978",
"z 	c #F4FAF2",
"{ 	c #FDFEFD",
"| 	c #95CB85",
"} 	c #6CB656",
"~ 	c #71B85A",
" !	c #96CC84",
"!!	c #99C786",
"#!	c #1E771A",
"$!	c #3CA31D",
"%!	c #63AF4B",
"&!	c #B3DDA9",
"'!	c #78C063",
"(!	c #70BD5E",
")!	c #84C474",
"*!	c #D9ECD4",
"+!	c #98CD89",
",!	c #6BB555",
"-!	c #6DB457",
".!	c #73B65B",
"0!	c #B3DAA5",
"1!	c #4D9A40",
"2!	c #1E761A",
"3!	c #2E951B",
"4!	c #86C171",
"5!	c #B1DBA7",
"6!	c #76BB5F",
"7!	c #72B95B",
"8!	c #6FB758",
"9!	c #6EB458",
":!	c #6EB457",
";!	c #73B65A",
"<!	c #B2D9A4",
"=!	c #7EB768",
">!	c #1D7019",
"?!	c #1F891A",
"@!	c #82BD6C",
"A!	c #B4DBA7",
"B!	c #97CC86",
"C!	c #7CBB65",
"D!	c #7BB963",
"E!	c #97CB85",
"F!	c #B3D9A4",
"G!	c #7CB665",
"H!	c #1C6B19",
"I!	c #1E821A",
"J!	c #519F41",
"K!	c #99CA86",
"L!	c #AAD39A",
"M!	c #AAD29A",
"N!	c #95C782",
"O!	c #4B963C",
"P!	c #1D6D19",
"Q!	c #1E7D1A",
"R!	c #1E791A",
"S!	c #1D7219",
"T!	c #1D6F19",
"U!	c #1E701A",
"                                ",
"          # $ % & ' (           ",
"        ) * + , , - . 0         ",
"      1 2 3 4 5 5 4 6 7 8       ",
"    9 2 6 : ; < = > ? @ A B     ",
"  C D 3 : < E F G H I J K L M   ",
"  N O P Q R S T U V W X Y Z [   ",
"  ] ^ _ ` a b c d W e f g h i   ",
"  j k l m n W o W e p q r s t   ",
"  u v w x y z W { | } ~  !!!#!  ",
"  $!%!&!'!(!)!*!+!,!-!.!0!1!2!  ",
"    3!4!5!6!7!8!9!:!;!<!=!>!    ",
"      ?!@!A!B!C!D!E!F!G!H!      ",
"        I!J!K!L!M!N!O!P!        ",
"          Q!R!S!T!U!U!          ",
"                                "};
