/* XPM */ 
static char * close_down_xpm[] = {
"14 14 137 2",
"  	c None",
"! 	c black",
"# 	c #BC5F5F",
"$ 	c #AC2324",
"% 	c #AA2123",
"& 	c #AB2224",
"' 	c #A92426",
"( 	c #B34A4A",
") 	c #B85655",
"* 	c #B3333D",
"+ 	c #C79EA9",
", 	c #C59CA8",
"- 	c #C69EAA",
". 	c #C69DAA",
"0 	c #C69DA9",
"1 	c #C79FAB",
"2 	c #C69BA8",
"3 	c #C7A1AC",
"4 	c #B73D48",
"5 	c #B23434",
"6 	c #A81818",
"7 	c #B86E7E",
"8 	c #B75765",
"9 	c #B54C5E",
": 	c #B74C5D",
"; 	c #B75663",
"< 	c #B75664",
"= 	c #B44A5B",
"> 	c #B54E5E",
"? 	c #B6525F",
"@ 	c #BB6E7D",
"A 	c #A51218",
"B 	c #A81115",
"C 	c #B4657A",
"D 	c #B24F61",
"E 	c #BB6A7B",
"F 	c #CBA8B0",
"G 	c #B85C6A",
"H 	c #B24D5F",
"I 	c #CAA4B0",
"J 	c #BF7E8B",
"K 	c #B25664",
"L 	c #B46576",
"M 	c #AC1122",
"N 	c #A01215",
"O 	c #BC6575",
"P 	c #B04C5C",
"Q 	c #CAAAB2",
"R 	c #DBEAE8",
"S 	c #D0B9BF",
"T 	c #CDA7AE",
"U 	c #DDECEA",
"V 	c #CBB5BB",
"W 	c #A8273D",
"X 	c #BA4A63",
"Y 	c #A6151F",
"Z 	c #881113",
"[ 	c #BF5E68",
"] 	c #B44E59",
"^ 	c #AA565D",
"_ 	c #C8B8BA",
"` 	c #D8DEDD",
"a 	c #DBE0DE",
"b 	c #C4B6B7",
"c 	c #8E2226",
"d 	c #A60003",
"e 	c #B20508",
"f 	c #8C0303",
"g 	c #720E0F",
"h 	c #C14E54",
"i 	c #B14348",
"j 	c #B33A3F",
"k 	c #C19D9E",
"l 	c #D6DBDD",
"m 	c #D9E4E6",
"n 	c #C09B9D",
"o 	c #AB0609",
"p 	c #C00302",
"q 	c #C20000",
"r 	c #850000",
"s 	c #5A0A0B",
"t 	c #C33D41",
"u 	c #B02028",
"v 	c #BE898E",
"w 	c #C9DCDA",
"x 	c #B3A4AA",
"y 	c #A88F8F",
"z 	c #CBE8E5",
"{ 	c #C58492",
"| 	c #C60000",
"} 	c #D80402",
"~ 	c #770000",
" !	c #490506",
"!!	c #C32327",
"#!	c #B40E10",
"$!	c #943B3F",
"%!	c #928B8F",
"&!	c #8D1719",
"'!	c #900000",
"(!	c #8F7D7F",
")!	c #964448",
"*!	c #C40000",
"+!	c #D50201",
",!	c #6F0101",
"-!	c #4F0001",
".!	c #CA070A",
"0!	c #A40202",
"1!	c #840000",
"2!	c #7B0002",
"3!	c #A60002",
"4!	c #BF0002",
"5!	c #A00000",
"6!	c #C80000",
"7!	c #DD0000",
"8!	c #5D0000",
"9!	c #684241",
":!	c #870000",
";!	c #CD0401",
"<!	c #B90F02",
"=!	c #C01300",
">!	c #C41500",
"?!	c #D01500",
"@!	c #DE1E04",
"A!	c #DD1A02",
"B!	c #E51900",
"C!	c #AC0000",
"D!	c #5E2A29",
"E!	c #623D3B",
"F!	c #570100",
"G!	c #6C0500",
"H!	c #630600",
"I!	c #6D0600",
"J!	c #6E0600",
"K!	c #6C0700",
"L!	c #720901",
"M!	c #5D0800",
"N!	c #62302F",
"                            ",
"    # $ % & & & & & ' (     ",
"  ) * + , - . 0 1 2 3 4 5   ",
"  6 7 8 9 : ; < = > ? @ A   ",
"  B C D E F G H I J K L M   ",
"  N O P Q R S T U V W X Y   ",
"  Z [ ] ^ _ ` a b c d e f   ",
"  g h i j k l m n o p q r   ",
"  s t u v w x y z { | } ~   ",
"   !!!#!$!%!&!'!(!)!*!+!,!  ",
"  -!.!0!1!2!3!4!'!5!6!7!8!  ",
"  9!:!;!<!=!>!?!@!A!B!C!D!  ",
"    E!F!G!H!I!J!K!L!M!N!    ",
"                            "};