/* XPM */
static char * close_disabled_xpm[] = {
"14 14 131 2",
"  	c None",
"! 	c black",
"# 	c #BEC0BF",
"$ 	c #B7B9B7",
"% 	c #B3B9B4",
"& 	c #B8B7B8",
"' 	c #BABCBA",
"( 	c #BEBCBA",
") 	c #BDBEBA",
"* 	c #D2D1D0",
"+ 	c #D1D0CD",
", 	c #CED0CB",
"- 	c #CDD1CB",
". 	c #D0CFCD",
"0 	c #D2D3CF",
"1 	c #BEC0BB",
"2 	c #B5B5B5",
"3 	c #B4B1AE",
"4 	c #C8C5BE",
"5 	c #C3C2B8",
"6 	c #BFBDB9",
"7 	c #C0BDB8",
"8 	c #C4C1BB",
"9 	c #C4C0BB",
": 	c #C3BEB7",
"; 	c #C3BFB8",
"< 	c #C2C1B8",
"= 	c #B3B4AE",
"> 	c #B0B1B1",
"? 	c #C7C4BD",
"@ 	c #C5C2BC",
"A 	c #C6C5C2",
"B 	c #D3D1CC",
"C 	c #C5C3BC",
"D 	c #C4C1BC",
"E 	c #D0D0CE",
"F 	c #CBCAC6",
"G 	c #C6C1BB",
"H 	c #C6C4BD",
"I 	c #B7B6AE",
"J 	c #B1AFAB",
"K 	c #C8C3BE",
"L 	c #C3BEBA",
"M 	c #D5D0CC",
"N 	c #E2DDDA",
"O 	c #D8D2CF",
"P 	c #D2D1CF",
"Q 	c #E0DEDA",
"R 	c #D4D2D0",
"S 	c #B7B8B6",
"T 	c #C4BEBC",
"U 	c #B9B1B0",
"V 	c #A9A7A2",
"W 	c #BFBEBD",
"X 	c #BDB9B4",
"Y 	c #BCB9B5",
"Z 	c #D0CFC8",
"[ 	c #D8D8D6",
"] 	c #D7D8D8",
"^ 	c #D0D0CC",
"_ 	c #AEACA9",
"` 	c #A8A8A5",
"a 	c #AFACA7",
"b 	c #A8A79F",
"c 	c #A2A29F",
"d 	c #BEBBB6",
"e 	c #BBB8B4",
"f 	c #BBB8B2",
"g 	c #C9C9C6",
"h 	c #D6D7D0",
"i 	c #D9D9D1",
"j 	c #CCCAC5",
"k 	c #AAA9A7",
"l 	c #ACABA7",
"m 	c #ACAEAD",
"n 	c #A4A39D",
"o 	c #9F9F99",
"p 	c #BABBB7",
"q 	c #B2B4B0",
"r 	c #C7C8C6",
"s 	c #D6D6D3",
"t 	c #CBCBC6",
"u 	c #C3C5C3",
"v 	c #D9D7D5",
"w 	c #C7C9C5",
"x 	c #ADAEAB",
"y 	c #B5B3B1",
"z 	c #9FA19E",
"{ 	c #9C9B9A",
"| 	c #BABBB8",
"} 	c #B6B5B3",
"~ 	c #B4B2B1",
" !	c #C2C1BF",
"!!	c #ACADA8",
"#!	c #A8A9A5",
"$!	c #C1C0BF",
"%!	c #BAB8B7",
"&!	c #B3B0B1",
"'!	c #B6B5B7",
"(!	c #A3A2A1",
")!	c #A09B97",
"*!	c #BDB7B3",
"+!	c #B4AEAA",
",!	c #A7A39E",
"-!	c #AAA5A0",
".!	c #ADABA8",
"0!	c #B5ADAB",
"1!	c #ACA8A2",
"2!	c #B0A9A8",
"3!	c #B4AFAF",
"4!	c #B7B7B5",
"5!	c #A39F9C",
"6!	c #A7A5A0",
"7!	c #A6A4A6",
"8!	c #B3B0AB",
"9!	c #B4B1AB",
":!	c #B3B2B4",
";!	c #B5B4B4",
"<!	c #B8B8B5",
"=!	c #B6B7B6",
">!	c #ADABAD",
"?!	c #A5A29E",
"@!	c #A8A6A3",
"A!	c #A29F9A",
"B!	c #A8A59F",
"C!	c #A7A49E",
"D!	c #A8A5A0",
"E!	c #A6A49F",
"F!	c #A8A6A1",
"G!	c #A2A09B",
"H!	c #A6A5A0",
"                            ",
"    # $ % % % % % % & '     ",
"  ( ) * + , , , - . 0 1 2   ",
"  3 4 5 6 7 8 9 : ; < 4 =   ",
"  > ? @ A B C D E F G H I   ",
"  J K L M N O P Q R S T U   ",
"  V W X Y Z [ ] ^ _ ` a b   ",
"  c d e f g h i j k l m n   ",
"  o p q r s t u v w x y z   ",
"  { | } ~  !!!#!$!%!&!'!(!  ",
"  )!*!+!,!-!.!0!1!2!3!4!5!  ",
"  6!7!y 8!9!:!;!<!=!S >!?!  ",
"    @!A!B!C!D!6!E!F!G!H!    ",
"                            "};
