/* XPM */ 
static const char * close_hot_xpm[] = {
"14 14 134 2",
"  	c None",
"! 	c black",
"# 	c #CC615F",
"$ 	c #CF2A2C",
"% 	c #CE282A",
"& 	c #CE282B",
"' 	c #CE292A",
"( 	c #CE2B2D",
") 	c #CC4B4B",
"* 	c #CA5654",
"+ 	c #DB424E",
", 	c #EEBDCD",
"- 	c #EDBACB",
". 	c #EEB9CC",
"0 	c #ECB9CB",
"1 	c #ECB8CA",
"2 	c #EDBBCD",
"3 	c #ECB9C9",
"4 	c #EEC3D0",
"5 	c #DB4B59",
"6 	c #C93334",
"7 	c #C91A1D",
"8 	c #DF8096",
"9 	c #DB6777",
": 	c #D75C70",
"; 	c #D65D72",
"< 	c #DC677B",
"= 	c #DC687B",
"> 	c #D8586C",
"? 	c #D95E73",
"@ 	c #DA6373",
"A 	c #DF8397",
"B 	c #CC181E",
"C 	c #CB1419",
"D 	c #DF7689",
"E 	c #D95C6F",
"F 	c #E0818F",
"G 	c #F1C9D1",
"H 	c #DD6E83",
"I 	c #D75D70",
"J 	c #F2C4CA",
"K 	c #E997A4",
"L 	c #DC657A",
"M 	c #DF798C",
"N 	c #D11625",
"O 	c #BC1619",
"P 	c #E1798F",
"Q 	c #D75A6D",
"R 	c #F3CCD2",
"S 	c white",
"T 	c #F6DDE4",
"U 	c #F4CAD1",
"V 	c #F4D9DD",
"W 	c #D2304F",
"X 	c #DF5976",
"Y 	c #C71927",
"Z 	c #9D1417",
"[ 	c #E36F83",
"] 	c #DB5E6E",
"^ 	c #CB6871",
"_ 	c #F0DADE",
"` 	c #EBD7DA",
"a 	c #B02A2F",
"b 	c #C70004",
"c 	c #D9060A",
"d 	c #A80304",
"e 	c #871012",
"f 	c #ED5C66",
"g 	c #DA4F58",
"h 	c #DB454E",
"i 	c #E8BDC2",
"j 	c #E7B7BF",
"k 	c #CD090A",
"l 	c #E00301",
"m 	c #EA0000",
"n 	c #A20000",
"o 	c #700D0E",
"p 	c #EF4A54",
"q 	c #D82931",
"r 	c #E1A7AB",
"s 	c #ECFFFF",
"t 	c #D7C5C9",
"u 	c #CEACB0",
"v 	c #F4FFFF",
"w 	c #F0A2AD",
"x 	c #E80000",
"y 	c #FE0502",
"z 	c #910000",
"{ 	c #5C0708",
"| 	c #EF2832",
"} 	c #DB0E15",
"~ 	c #B4484C",
" !	c #B4A6AC",
"!!	c #A91C24",
"#!	c #AA0000",
"$!	c #AD979B",
"%!	c #B45158",
"&!	c #E90100",
"'!	c #FC0301",
"(!	c #830101",
")!	c #5B0000",
"*!	c #F4080B",
"+!	c #CB0204",
",!	c #A00000",
"-!	c #930001",
".!	c #C80001",
"0!	c #E00003",
"1!	c #AF0000",
"2!	c #C20000",
"3!	c #ED0000",
"4!	c #FF0000",
"5!	c #700000",
"6!	c #714241",
"7!	c #A40000",
"8!	c #F90500",
"9!	c #DA1403",
":!	c #E61601",
";!	c #ED1800",
"<!	c #F91B00",
"=!	c #FF2205",
">!	c #FF1E03",
"?!	c #FF1F00",
"@!	c #CF0000",
"A!	c #692929",
"B!	c #6B3D3C",
"C!	c #6A0200",
"D!	c #810600",
"E!	c #7D0701",
"F!	c #840700",
"G!	c #840800",
"H!	c #810800",
"I!	c #8A0A01",
"J!	c #720A00",
"K!	c #6C312F",
"                            ",
"    # $ % & & & % ' ( )     ",
"  * + , - . 0 1 2 3 4 5 6   ",
"  7 8 9 : ; < = > ? @ A B   ",
"  C D E F G H I J K L M N   ",
"  O P Q R S T U S V W X Y   ",
"  Z [ ] ^ _ S S ` a b c d   ",
"  e f g h i S S j k l m n   ",
"  o p q r s t u v w x y z   ",
"  { | } ~  !!!#!$!%!&!'!(!  ",
"  )!*!+!,!-!.!0!1!2!3!4!5!  ",
"  6!7!8!9!:!;!<!=!>!?!@!A!  ",
"    B!C!D!E!F!G!H!I!J!K!    ",
"                            "};