/* XPM */
static const char * close_xpm[] = {
"14 14 138 2",
"  	c None",
"! 	c black",
"# 	c #DF9798",
"$ 	c #D96569",
"% 	c #DA6567",
"& 	c #DB6566",
"' 	c #DB6567",
"( 	c #DB6668",
") 	c #DA8889",
"* 	c #DD9092",
"+ 	c #DF868D",
", 	c #EFD2DA",
"- 	c #EED0D7",
". 	c #EFD1D4",
"0 	c #EED0D4",
"1 	c #EED2D5",
"2 	c #EDD0D7",
"3 	c #EFD3DD",
"4 	c #E08C96",
"5 	c #D87878",
"6 	c #D86065",
"7 	c #E9ADB9",
"8 	c #E599A2",
"9 	c #E1939D",
": 	c #E1949D",
"; 	c #E59AA3",
"< 	c #E69AA3",
"= 	c #E3929A",
"> 	c #E4959D",
"? 	c #E496A0",
"@ 	c #E8AABB",
"A 	c #D76369",
"B 	c #D95D63",
"C 	c #E8A5B0",
"D 	c #E3919E",
"E 	c #E5A9B6",
"F 	c #F4D7DB",
"G 	c #E69FA8",
"H 	c #DF93A1",
"I 	c #F2D6D7",
"J 	c #ECB8C0",
"K 	c #E698A6",
"L 	c #E7A2B0",
"M 	c #D86E79",
"N 	c #D05A5F",
"O 	c #E6A5B3",
"P 	c #DE919D",
"Q 	c #F2D7DC",
"R 	c #FCFFFF",
"S 	c #F2E4E5",
"T 	c #EFD6DD",
"U 	c #FBFFFF",
"V 	c #F0E2E0",
"W 	c #DC7A89",
"X 	c #E692A0",
"Y 	c #D56D72",
"Z 	c #B95455",
"[ 	c #E79BAA",
"] 	c #DD8F9B",
"^ 	c #D9959F",
"_ 	c #EEDFE3",
"` 	c #F8FCFC",
"a 	c #FBFEFD",
"b 	c #E8E0E2",
"c 	c #C16370",
"d 	c #D2374C",
"e 	c #DE405A",
"f 	c #C4474F",
"g 	c #A84E50",
"h 	c #EA929A",
"i 	c #DB888E",
"j 	c #DB8286",
"k 	c #E9CCD1",
"l 	c #F9F8FC",
"m 	c #F8FFFF",
"n 	c #E6CDCE",
"o 	c #D64357",
"p 	c #E43B51",
"q 	c #EC3F51",
"r 	c #B54249",
"s 	c #994848",
"t 	c #EB888D",
"u 	c #DA7272",
"v 	c #E4C0BF",
"w 	c #E9FAFC",
"x 	c #DED3D9",
"y 	c #D8C3C6",
"z 	c #EBFFFF",
"{ 	c #EBC3C6",
"| 	c #EB4255",
"} 	c #F54453",
"~ 	c #AE4544",
" !	c #8D4343",
"!!	c #EB7579",
"#!	c #DD6366",
"$!	c #C87B7F",
"%!	c #C6BFBF",
"&!	c #BC606B",
"'!	c #C04650",
"(!	c #C3BCBA",
")!	c #C98A8D",
"*!	c #E9414D",
"+!	c #F44553",
",!	c #AB4346",
"-!	c #914142",
".!	c #EE5E68",
"0!	c #D34A5C",
"1!	c #B72744",
"2!	c #B33C53",
"3!	c #D1324F",
"4!	c #E43353",
"5!	c #C4374E",
"6!	c #CE354C",
"7!	c #EB374D",
"8!	c #F94356",
"9!	c #9E3A3B",
":!	c #9B6F6F",
";!	c #BF3B3C",
"<!	c #EE554F",
"=!	c #E25B4F",
">!	c #E85B4D",
"?!	c #EC604E",
"@!	c #F4614E",
"A!	c #FF634F",
"B!	c #FC634E",
"C!	c #FF694F",
"D!	c #D84D42",
"E!	c #9A5D5C",
"F!	c #996A63",
"G!	c #99443D",
"H!	c #A95043",
"I!	c #A15343",
"J!	c #A55041",
"K!	c #AA523B",
"L!	c #AA533B",
"M!	c #AD553C",
"N!	c #A04534",
"O!	c #9D645E",
"                            ",
"    # $ % & ' ' & ' ( )     ",
"  * + , - . 0 0 1 2 3 4 5   ",
"  6 7 8 9 : ; < = > ? @ A   ",
"  B C D E F G H I J K L M   ",
"  N O P Q R S T U V W X Y   ",
"  Z [ ] ^ _ ` a b c d e f   ",
"  g h i j k l m n o p q r   ",
"  s t u v w x y z { | } ~   ",
"   !!!#!$!%!&!'!(!)!*!+!,!  ",
"  -!.!0!1!2!3!4!5!6!7!8!9!  ",
"  :!;!<!=!>!?!@!A!B!C!D!E!  ",
"    F!G!H!I!J!K!L!M!N!O!    ",
"                            "};
