/* XPM */
static const char * exclamation_xpm[] = {
"16 16 114 2",
"  	c None",
"! 	c black",
"# 	c #FA8368",
"$ 	c #F98166",
"% 	c #F77F64",
"& 	c #F57D62",
"' 	c #F37B60",
"( 	c #F1795E",
") 	c #F98167",
"* 	c #EE826D",
"+ 	c #F4A591",
", 	c #F8B39F",
"- 	c #F3A590",
". 	c #E97C67",
"0 	c #EB7258",
"1 	c #F88065",
"2 	c #F19683",
"3 	c #FBBCA8",
"4 	c #F8A289",
"5 	c #F6886A",
"6 	c #F8A188",
"7 	c #FABBA7",
"8 	c #EC917E",
"9 	c #E46B51",
": 	c #F67E64",
"; 	c #F09682",
"< 	c #F58162",
"= 	c white",
"> 	c #F37D60",
"? 	c #F37B5F",
"@ 	c #F9B8A5",
"A 	c #EA8C7A",
"B 	c #DE6349",
"C 	c #EC806B",
"D 	c #F58061",
"E 	c #F47F61",
"F 	c #F0775E",
"G 	c #EF755C",
"H 	c #F8B4A4",
"I 	c #DD6F5C",
"J 	c #D75C42",
"K 	c #F8A087",
"L 	c #EE725B",
"M 	c #EC6F5A",
"N 	c #F19281",
"O 	c #EC9788",
"P 	c #D2573D",
"Q 	c #ED755A",
"R 	c #F8B5A0",
"S 	c #F48366",
"T 	c #EB6D59",
"U 	c #EA6B58",
"V 	c #E96E5E",
"W 	c #F1A79A",
"X 	c #CE5239",
"Y 	c #E97056",
"Z 	c #F7B29F",
"[ 	c #F27F64",
"] 	c #FAD9D3",
"^ 	c #E86857",
"_ 	c #E76656",
"` 	c #E76B5C",
"a 	c #F1A498",
"b 	c #CA4E34",
"c 	c #E56C51",
"d 	c #F09E8D",
"e 	c #F49883",
"f 	c #F19C8F",
"g 	c #F3AEA5",
"h 	c #E66455",
"i 	c #E56154",
"j 	c #EB887C",
"k 	c #E79084",
"l 	c #C54930",
"m 	c #E1674D",
"n 	c #E0725F",
"o 	c #F7B2A3",
"p 	c #E36053",
"q 	c #E25E52",
"r 	c #F2A89E",
"s 	c #D1604F",
"t 	c #C1452C",
"u 	c #DA5F45",
"v 	c #E68777",
"w 	c #F5AFA2",
"x 	c #ED9188",
"y 	c #EC9187",
"z 	c #E15C51",
"{ 	c #DD7C6E",
"| 	c #BF432A",
"} 	c #D3583E",
"~ 	c #E38374",
" !	c #F4ABA0",
"!!	c #EC8A7E",
"#!	c #E4665B",
"$!	c #E3655A",
"%!	c #EA867C",
"&!	c #F1A79E",
"'!	c #DD7B6E",
"(!	c #BE4228",
")!	c #CC5137",
"*!	c #D46351",
"+!	c #E78F83",
",!	c #EE9F94",
"-!	c #ED9E94",
".!	c #E58D82",
"0!	c #CE5C4B",
"1!	c #BC4027",
"2!	c #C54A30",
"3!	c #C3472E",
"4!	c #C1452B",
"5!	c #BF4329",
"6!	c #BD4127",
"7!	c #BB3F25",
"                                ",
"          # $ % & ' (           ",
"        ) * + , , - . 0         ",
"      1 2 3 4 5 5 6 7 8 9       ",
"    : ; 3 < < = = > ? @ A B     ",
"  & C 3 < D E = = ( F G H I J   ",
"  ( - K E > ? = = G L M N O P   ",
"  Q R S ? ( F = = M T U V W X   ",
"  Y Z [ F G L ] = U ^ _ ` a b   ",
"  c d e L M T f g _ h i j k l   ",
"  m n o T U ^ = = i p q r s t   ",
"    u v w _ h x y q z r { |     ",
"      } ~  !!!#!$!%!&!'!(!      ",
"        )!*!+!,!-!.!0!1!        ",
"          2!3!4!5!6!7!          ",
"                                "};
