/* XPM */ 
static char * incomming_xpm[] = {
"32 32 172 2",
"  	c None",
"! 	c black",
"# 	c #6E644C",
"$ 	c #6A604A",
"% 	c #6C6048",
"& 	c #6C624A",
"' 	c #6C644C",
"( 	c #70644C",
") 	c #70664E",
"* 	c #72664E",
"+ 	c #72684E",
", 	c #746A50",
"- 	c #786E54",
". 	c #686048",
"0 	c #645A46",
"1 	c #4C4430",
"2 	c #302A1A",
"3 	c #362E1E",
"4 	c #3A3220",
"5 	c #403824",
"6 	c #443C28",
"7 	c #48402C",
"8 	c #524832",
"9 	c #584C38",
": 	c #5A503A",
"; 	c #60543E",
"< 	c #645840",
"= 	c #6A5E44",
"> 	c #685C44",
"? 	c #807456",
"@ 	c #645C44",
"A 	c #443E2E",
"B 	c #4E4636",
"C 	c #0A0602",
"D 	c #1E160A",
"E 	c #20180C",
"F 	c #221A0E",
"G 	c #241C0E",
"H 	c #2A2012",
"I 	c #2E2616",
"J 	c #342C1C",
"K 	c #383020",
"L 	c #3E3624",
"M 	c #443A26",
"N 	c #4E442E",
"O 	c #544832",
"P 	c #5A4E36",
"Q 	c #5C5238",
"R 	c #786C54",
"S 	c #58544A",
"T 	c #181610",
"U 	c #0C0804",
"V 	c #2A2212",
"W 	c #2C2414",
"X 	c #302818",
"Y 	c #4A402A",
"Z 	c #504430",
"[ 	c #544A32",
"] 	c #5E523A",
"^ 	c #48402E",
"_ 	c #5C543E",
"` 	c #201A0C",
"a 	c #2C2820",
"b 	c #18140A",
"c 	c #322816",
"d 	c #342C18",
"e 	c #362C1A",
"f 	c #3A301E",
"g 	c #403622",
"h 	c #443C26",
"i 	c #50442C",
"j 	c #64583E",
"k 	c #524834",
"l 	c #685E46",
"m 	c #282018",
"n 	c #201810",
"o 	c #343024",
"p 	c #28241C",
"q 	c #3C3424",
"r 	c #403828",
"s 	c #423A28",
"t 	c #483E2A",
"u 	c #504830",
"v 	c #564C36",
"w 	c #5C543C",
"x 	c #5C503C",
"y 	c #605840",
"z 	c #504834",
"{ 	c #746848",
"| 	c #988864",
"} 	c #9C8C68",
"~ 	c #A08C68",
" !	c #948460",
"!!	c #908460",
"#!	c #908060",
"$!	c #60543C",
"%!	c #D0B888",
"&!	c #C0AC7C",
"'!	c #C0AC80",
"(!	c #BCA87C",
")!	c #B8A478",
"*!	c #B4A478",
"+!	c #B4A074",
",!	c #B09C74",
"-!	c #A89468",
".!	c #A8946C",
"0!	c #A8986C",
"1!	c #AC986C",
"2!	c #706448",
"3!	c #C4B080",
"4!	c #AC9C70",
"5!	c #A49068",
"6!	c #6C6044",
"7!	c #A08C64",
"8!	c #9C8C60",
"9!	c #9C8860",
":!	c #665A42",
";!	c #8C7C58",
"<!	c #A08C60",
"=!	c #9C8C64",
">!	c #988860",
"?!	c #90805C",
"@!	c #887858",
"A!	c #948058",
"B!	c #908058",
"C!	c #887854",
"D!	c #807050",
"E!	c #847450",
"F!	c #706444",
"G!	c #6C6040",
"H!	c #6C5C40",
"I!	c #64583C",
"J!	c #605438",
"K!	c #5C5038",
"L!	c #746844",
"M!	c #887850",
"N!	c #88744C",
"O!	c #806C48",
"P!	c #5C5034",
"Q!	c #806C44",
"R!	c #7C6C44",
"S!	c #7C6844",
"T!	c #746440",
"U!	c #544830",
"V!	c #907C54",
"W!	c #786840",
"X!	c #786440",
"Y!	c #74643C",
"Z!	c #74603C",
"[!	c #706038",
"]!	c #6C5C38",
"^!	c #4E442C",
"_!	c #645438",
"`!	c #847048",
"a!	c #70603C",
"b!	c #705C38",
"c!	c #6C5834",
"d!	c #685834",
"e!	c #685430",
"f!	c #645430",
"g!	c #64502C",
"h!	c #483C24",
"i!	c #584C2C",
"j!	c #60502C",
"k!	c #604C28",
"l!	c #5C4C28",
"m!	c #443820",
"n!	c #443824",
"o!	c #403420",
"p!	c #3C3420",
"q!	c #3C301C",
"r!	c #38301C",
"                                                                ",
"                                                                ",
"                                                                ",
"                                                                ",
"                                                                ",
"                                                                ",
"                                                                ",
"                                                                ",
"                # $ % % & ' ' ( ( ) * + , , , - .               ",
"              0 1 2 3 3 4 5 6 7 1 8 9 : ; < = > ? @             ",
"            A B C D E F G H I J K L M 7 N O P Q 1 R S           ",
"            B T U V H W I X J 4 5 6 Y Z [ P ] < ^ _ ;           ",
"          ` a ! b V W I c d e f g h Y i [ P ] j k 7 l m         ",
"        n o p p J q q L r s 6 t 7 1 u k v : w ; x 9 y z         ",
"        { | } } ~ } } } } } } } } } } } | | |  ! ! !!!#!$!      ",
"         !%!&!&!'!'!'!'!&!'!'!'!'!&!(!(!(!)!)!*!+!,!+!,!{       ",
"         !'!-!.!.!.!.!.!.!.!.!.!.!.!.!0!0!0!0!1!0!1!1!.!2!      ",
"         !3!1!4!4!4!4!4!1!1!1!1!1!1!0!0!.!0!0!.!.!-!.!5!6!      ",
"        !!3!.!0!.!.!-!-!1!1!1!1!1!1!.!.!-!7!7!7!8!9!9! !:!      ",
"        ;!)!<!7!7!8!7!1!5!7!=!| >! !?!;!@!>!A!A!A!A!B!C!$!      ",
"        D!0!A!A!A!A!A!E!2!F!6!G!H!I!I!J!K!L!M!N!N!N!N!O!P!      ",
"        { 8!M!M!M!N!N!N!N!N!N!N!N!N!N!N!N!O!Q!Q!R!S!S!T!U!      ",
"        G!V!Q!Q!R!S!S!S!S!W!W!X!X!T!Y!Y!Y!Y!Z!Z!Z![![!]!^!      ",
"        _!`!Z!Y!Z!a![![!b!b!b!]!c!c!c!c!c!d!d!e!e!e!f!g!h!      ",
"        i!X!a!b!]!]!c!d!d!e!f!f!g!j!j!j!k!k!k!l!l!l!l!l!m!      ",
"        f n!n!g g o!p!p!p!q!q!q!r!r!r!r!r!r!r!r!r!r!q!p!X       ",
"                                                                ",
"                                                                ",
"                                                                ",
"                                                                ",
"                                                                ",
"                                                                "};