/* XPM */ 
static const char * incomming_full_xpm[] = {
"32 32 141 2",
"  	c None",
"! 	c black",
"# 	c #525252",
"$ 	c white",
"% 	c #6E644C",
"& 	c #6A604A",
"' 	c #786E54",
"( 	c #686048",
") 	c #645A46",
"* 	c #4C4430",
"+ 	c #302A1A",
", 	c #685C44",
"- 	c #807456",
". 	c #645C44",
"0 	c #443E2E",
"1 	c #4E4636",
"2 	c #0A0602",
"3 	c #1E160A",
"4 	c #5C5238",
"5 	c #786C54",
"6 	c #58544A",
"7 	c #181610",
"8 	c #0C0804",
"9 	c #2A2212",
": 	c #645840",
"; 	c #48402E",
"< 	c #5C543E",
"= 	c #60543E",
"> 	c #201A0C",
"? 	c #2C2820",
"@ 	c #18140A",
"A 	c #64583E",
"B 	c #524834",
"C 	c #48402C",
"D 	c #685E46",
"E 	c #282018",
"F 	c #201810",
"G 	c #343024",
"H 	c #28241C",
"I 	c #342C1C",
"J 	c #3C3424",
"K 	c #3E3624",
"L 	c #403828",
"M 	c #423A28",
"N 	c #443C28",
"O 	c #483E2A",
"P 	c #504830",
"Q 	c #564C36",
"R 	c #5A503A",
"S 	c #5C543C",
"T 	c #5C503C",
"U 	c #584C38",
"V 	c #605840",
"W 	c #504834",
"X 	c #746848",
"Y 	c #988864",
"Z 	c #9C8C68",
"[ 	c #A08C68",
"] 	c #948460",
"^ 	c #908460",
"_ 	c #908060",
"` 	c #60543C",
"a 	c #D0B888",
"b 	c #C0AC7C",
"c 	c #C0AC80",
"d 	c #BCA87C",
"e 	c #B8A478",
"f 	c #B4A478",
"g 	c #B4A074",
"h 	c #B09C74",
"i 	c #A89468",
"j 	c #A8946C",
"k 	c #A8986C",
"l 	c #AC986C",
"m 	c #706448",
"n 	c #C4B080",
"o 	c #AC9C70",
"p 	c #A49068",
"q 	c #6C6044",
"r 	c #A08C64",
"s 	c #9C8C60",
"t 	c #9C8860",
"u 	c #665A42",
"v 	c #8C7C58",
"w 	c #A08C60",
"x 	c #9C8C64",
"y 	c #988860",
"z 	c #90805C",
"{ 	c #887858",
"| 	c #948058",
"} 	c #908058",
"~ 	c #887854",
" !	c #807050",
"!!	c #847450",
"#!	c #706444",
"$!	c #6C6040",
"%!	c #6C5C40",
"&!	c #64583C",
"'!	c #605438",
"(!	c #5C5038",
")!	c #746844",
"*!	c #887850",
"+!	c #88744C",
",!	c #806C48",
"-!	c #5C5034",
".!	c #806C44",
"0!	c #7C6C44",
"1!	c #7C6844",
"2!	c #746440",
"3!	c #544830",
"4!	c #907C54",
"5!	c #786840",
"6!	c #786440",
"7!	c #74643C",
"8!	c #74603C",
"9!	c #706038",
":!	c #6C5C38",
";!	c #4E442C",
"<!	c #645438",
"=!	c #847048",
">!	c #70603C",
"?!	c #705C38",
"@!	c #6C5834",
"A!	c #685834",
"B!	c #685430",
"C!	c #645430",
"D!	c #64502C",
"E!	c #483C24",
"F!	c #584C2C",
"G!	c #60502C",
"H!	c #604C28",
"I!	c #5C4C28",
"J!	c #443820",
"K!	c #3A301E",
"L!	c #443824",
"M!	c #403622",
"N!	c #403420",
"O!	c #3C3420",
"P!	c #3C301C",
"Q!	c #38301C",
"R!	c #302818",
"                                                                ",
"                                                                ",
"                                                                ",
"                    # # # # # # # # # # #                       ",
"                    # $ $ $ $ $ $ $ $ $ $ #                     ",
"                    # $ $ $ $ $ $ $ $ $ $ $ #                   ",
"                    # $ $ $ $ $ $ $ $ $ $ $ #                   ",
"                    # $ $ $ $ $ $ $ $ $ $ $ #                   ",
"                % & # $ $ $ $ $ $ $ $ $ $ $ # ' (               ",
"              ) * + # $ $ $ $ $ $ $ $ $ $ $ # , - .             ",
"            0 1 2 3 # $ $ $ $ $ $ $ $ $ $ $ # 4 * 5 6           ",
"            1 7 8 9 # $ $ $ $ $ $ $ $ $ $ $ # : ; < =           ",
"          > ? ! @ 9 # $ $ $ $ $ $ $ $ $ $ $ # A B C D E         ",
"        F G H H I J J K L M N O C * P B Q R S = T U V W         ",
"        X Y Z Z [ Z Z Z Z Z Z Z Z Z Z Z Y Y Y ] ] ] ^ _ `       ",
"        ] a b b c c c c b c c c c b d d d e e f g h g h X       ",
"        ] c i j j j j j j j j j j j j k k k k l k l l j m       ",
"        ] n l o o o o o l l l l l l k k j k k j j i j p q       ",
"        ^ n j k j j i i l l l l l l j j i r r r s t t ] u       ",
"        v e w r r s r l p r x Y y ] z v { y | | | | } ~ `       ",
"         !k | | | | | !!m #!q $!%!&!&!'!(!)!*!+!+!+!+!,!-!      ",
"        X s *!*!*!+!+!+!+!+!+!+!+!+!+!+!+!,!.!.!0!1!1!2!3!      ",
"        $!4!.!.!0!1!1!1!1!5!5!6!6!2!7!7!7!7!8!8!8!9!9!:!;!      ",
"        <!=!8!7!8!>!9!9!?!?!?!:!@!@!@!@!@!A!A!B!B!B!C!D!E!      ",
"        F!6!>!?!:!:!@!A!A!B!C!C!D!G!G!G!H!H!H!I!I!I!I!I!J!      ",
"        K!L!L!M!M!N!O!O!O!P!P!P!Q!Q!Q!Q!Q!Q!Q!Q!Q!Q!P!O!R!      ",
"                                                                ",
"                                                                ",
"                                                                ",
"                                                                ",
"                                                                ",
"                                                                "};