/* XPM */
static char * left_arrow_xpm[] = {
"20 20 126 2",
"  	c None",
"! 	c black",
"# 	c #7EC17B",
"$ 	c #009000",
"% 	c #9CCF9A",
"& 	c #5CB258",
"' 	c #3AAE34",
"( 	c #8DD581",
") 	c #BAEDAA",
"* 	c #E8FFD4",
"+ 	c #A9E69B",
", 	c #81C37F",
"- 	c #9BF784",
". 	c #9EE491",
"0 	c #68B865",
"1 	c #8BF473",
"2 	c #91F67A",
"3 	c #BBF0AC",
"4 	c #279F24",
"5 	c #45AA43",
"6 	c #C5FFB0",
"7 	c #90F775",
"8 	c #8FF578",
"9 	c #87F272",
": 	c #B3F9A2",
"; 	c #BEFFAE",
"< 	c #BBFFAB",
"= 	c #B5FFA7",
"> 	c #B2FFA6",
"? 	c #AEFDA3",
"@ 	c #A8FB9E",
"A 	c #98F790",
"B 	c #32A72D",
"C 	c #6CCB62",
"D 	c #8AF273",
"E 	c #8CF474",
"F 	c #88F373",
"G 	c #81F26F",
"H 	c #7AEF69",
"I 	c #6DEA61",
"J 	c #65E75B",
"K 	c #5EE656",
"L 	c #58E454",
"M 	c #50E24F",
"N 	c #49DD4A",
"O 	c #87DD79",
"P 	c #B8FDA2",
"Q 	c #8EF177",
"R 	c #8CF276",
"S 	c #86F372",
"T 	c #80F26E",
"U 	c #7AF06A",
"V 	c #73ED65",
"W 	c #6BEC60",
"X 	c #64E95C",
"Y 	c #5EE758",
"Z 	c #58DF52",
"[ 	c #50D449",
"] 	c #4AC944",
"^ 	c #91EF86",
"_ 	c #80DC73",
"` 	c #ABFA97",
"a 	c #86EE71",
"b 	c #82EE6F",
"c 	c #83F070",
"d 	c #7EF06C",
"e 	c #7AEF68",
"f 	c #73EE65",
"g 	c #6CED60",
"h 	c #66E85C",
"i 	c #60E056",
"j 	c #5BD54F",
"k 	c #55CD49",
"l 	c #4DC845",
"m 	c #47C140",
"n 	c #86EB7A",
"o 	c #58CA4F",
"p 	c #A3FA91",
"q 	c #85EF73",
"r 	c #75ED65",
"s 	c #77ED68",
"t 	c #71ED64",
"u 	c #6BEB60",
"v 	c #67E25A",
"w 	c #61D652",
"x 	c #5CD04E",
"y 	c #57CE4A",
"z 	c #50C946",
"{ 	c #4AC542",
"| 	c #44BF3E",
"} 	c #7BE670",
"~ 	c #3DA43B",
" !	c #1AA319",
"!!	c #90F682",
"#!	c #80F172",
"$!	c #6AEB5E",
"%!	c #68E65C",
"&!	c #65DC56",
"'!	c #82E971",
"(!	c #83EF74",
")!	c #80EE73",
"*!	c #7DED70",
"+!	c #7AEB6D",
",!	c #75E86A",
"-!	c #6FE666",
".!	c #81F777",
"0!	c #5FAF5D",
"1!	c #1FAD1C",
"2!	c #77F26E",
"3!	c #79EC6B",
"4!	c #5ED450",
"5!	c #62D653",
"6!	c #70E564",
"7!	c #1C9B1C",
"8!	c #7DBB7A",
"9!	c #55DA4B",
":!	c #70E562",
";!	c #61D654",
"<!	c #46D53D",
"=!	c #3ACE33",
">!	c #6CEC61",
"?!	c #3DD435",
"@!	c #23C41F",
"A!	c #26D421",
"B!	c #3FA73E",
"C!	c #56AA53",
"                                        ",
"                    # $                 ",
"                % & ' $                 ",
"              % $ ( ) $                 ",
"            % $ ( * + $                 ",
"          , $ ( * - . $                 ",
"        0 $ ( * 1 2 3 $ $ $ $ $ $ $ 4   ",
"      5 $ 6 6 7 8 9 : ; < = > ? @ A $   ",
"  0 B C 6 D E 8 F G H I J K L M N A $   ",
"0 $ O P Q D R S T U V W X Y Z [ ] ^ $   ",
"0 $ _ ` a b c d e f g h i j k l m n $   ",
"  0 $ o p q r s t u v w x y z { | } $   ",
"      ~  !!!#!$!%!&!'!(!)!*!+!,!-!.!$   ",
"        0!1!2!3!4!5!6!$ $ $ $ $ $ $ 7!  ",
"          8!$ 9!:!;!<!$                 ",
"              $ =!>!?!$                 ",
"                $ @!A!$                 ",
"                  B!$ $                 ",
"                    C!$                 ",
"                                        "};
