/* XPM */ 
static const char * left_arrow_over_xpm[] = {
"20 20 128 2",
"  	c None",
"! 	c black",
"# 	c #5CB158",
"$ 	c #005D00",
"% 	c #479344",
"& 	c #2D8728",
"' 	c #9BCB97",
"( 	c #6AC85B",
") 	c #98E480",
"* 	c #7ABF77",
"+ 	c #CDFFA1",
", 	c #86DC72",
"- 	c #5FB35C",
". 	c #74F454",
"0 	c #7ADA68",
"1 	c #4DA04A",
"2 	c #64F044",
"3 	c #69F34A",
"4 	c #98E881",
"5 	c #1D751B",
"6 	c #368535",
"7 	c #A0FF7D",
"8 	c #69F445",
"9 	c #68F149",
": 	c #5FEE43",
"; 	c #8CF672",
"< 	c #95FF7B",
"= 	c #92FF78",
"> 	c #8AFF74",
"? 	c #86FF73",
"@ 	c #82FC71",
"A 	c #7CF96D",
"B 	c #6CF460",
"C 	c #267F22",
"D 	c #4ABC3E",
"E 	c #63EE44",
"F 	c #65F045",
"G 	c #60EF44",
"H 	c #58EE40",
"I 	c #51EA3B",
"J 	c #43E434",
"K 	c #3BE02F",
"L 	c #34DF2A",
"M 	c #2DDD28",
"N 	c #25DA24",
"O 	c #26CD27",
"P 	c #63D350",
"Q 	c #92FC70",
"R 	c #68EC49",
"S 	c #65EE47",
"T 	c #5EEF43",
"U 	c #57EE3F",
"V 	c #51EB3C",
"W 	c #49E837",
"X 	c #41E732",
"Y 	c #39E32F",
"Z 	c #33E12B",
"[ 	c #2FD628",
"] 	c #34BD2D",
"^ 	c #36A931",
"_ 	c #68E959",
"` 	c #5BD24A",
"a 	c #84F866",
"b 	c #5FE943",
"c 	c #5AE941",
"d 	c #5BEB42",
"e 	c #55EB3E",
"f 	c #51EA3A",
"g 	c #49E937",
"h 	c #42E832",
"i 	c #3CE22F",
"j 	c #37D82B",
"k 	c #3CC32E",
"l 	c #3DB231",
"m 	c #39A832",
"n 	c #389C32",
"o 	c #5EE44E",
"p 	c #3EB135",
"q 	c #7AF860",
"r 	c #5DEA45",
"s 	c #4CE837",
"t 	c #4EE83A",
"u 	c #47E836",
"v 	c #41E533",
"w 	c #3FDA2F",
"x 	c #40C62F",
"y 	c #40BA31",
"z 	c #3EB431",
"{ 	c #3BAA32",
"| 	c #39A232",
"} 	c #369832",
"~ 	c #53DE45",
" !	c #2F7E2E",
"!!	c #137712",
"#!	c #66F352",
"$!	c #56EC44",
"%!	c #40E531",
"&!	c #3FDF30",
"'!	c #3FD32C",
"(!	c #5BE245",
")!	c #5AEA46",
"*!	c #57E846",
"+!	c #54E743",
",!	c #51E540",
"-!	c #4CE13E",
".!	c #46DF3A",
"0!	c #54F447",
"1!	c #4A9148",
"2!	c #178115",
"3!	c #4BEE3F",
"4!	c #50E63E",
"5!	c #3FC130",
"6!	c #41C72F",
"7!	c #48DE38",
"8!	c #147014",
"9!	c #5CAA58",
":!	c #34C929",
";!	c #48DE36",
"<!	c #3FC730",
"=!	c #30B728",
">!	c #7BB677",
"?!	c #2EA628",
"@!	c #42E733",
"A!	c #2DB026",
"B!	c #1B9818",
"C!	c #1EA81A",
"D!	c #318230",
"E!	c #458842",
"                                        ",
"                    # $                 ",
"                  % & $                 ",
"              ' $ ( ) $                 ",
"            * $ ( + , $                 ",
"          - $ ( + . 0 $                 ",
"        1 $ ( + 2 3 4 $ $ $ $ $ $ $ 5   ",
"      6 $ 7 7 8 9 : ; < = > ? @ A B $   ",
"    C D 7 E F 9 G H I J K L M N O B $   ",
"  $ P Q R E S T U V W X Y Z [ ] ^ _ $   ",
"  $ ` a b c d e f g h i j k l m n o $   ",
"    $ p q r s t u v w x y z { | } ~ $   ",
"       !!!#!$!%!&!'!(!)!*!+!,!-!.!0!$   ",
"        1!2!3!4!5!6!7!$ $ $ $ $ $ $ 8!  ",
"          9!$ :!;!<!=!$                 ",
"            >!$ ?!@!A!$                 ",
"                $ B!C!$                 ",
"                  D!$ $                 ",
"                    E!$                 ",
"                                        "};