/* XPM */
static char * left_arrow_gray_xpm[] = {
"20 20 75 1",
" 	c None",
"!	c black",
"#	c #C1C1C1",
"$	c #5E5E5E",
"%	c #A5A5A5",
"&	c #8C8C8C",
"'	c #CFCFCF",
"(	c #F3F3F3",
")	c white",
"*	c #E6E6E6",
"+	c #C4C4C4",
",	c #E0E0E0",
"-	c #DFDFDF",
".	c #AFAFAF",
"0	c #D4D4D4",
"1	c #D9D9D9",
"2	c #F5F5F5",
"3	c #7C7C7C",
"4	c #949494",
"5	c #D7D7D7",
"6	c #D1D1D1",
"7	c #F2F2F2",
"8	c #FCFCFC",
"9	c #FAFAFA",
":	c #F7F7F7",
";	c #EEEEEE",
"<	c #E3E3E3",
"=	c #858585",
">	c #B6B6B6",
"?	c #D3D3D3",
"@	c #D2D2D2",
"A	c #CECECE",
"B	c #C9C9C9",
"C	c #C0C0C0",
"D	c #BBBBBB",
"E	c #B3B3B3",
"F	c #AEAEAE",
"G	c #A8A8A8",
"H	c #CDCDCD",
"I	c #D5D5D5",
"J	c #CACACA",
"K	c #C5C5C5",
"L	c #B7B7B7",
"M	c #B1B1B1",
"N	c #A7A7A7",
"O	c #A0A0A0",
"P	c #DADADA",
"Q	c #C8C8C8",
"R	c #ECECEC",
"S	c #CCCCCC",
"T	c #BCBCBC",
"U	c #B5B5B5",
"V	c #ADADAD",
"W	c #A1A1A1",
"X	c #9B9B9B",
"Y	c #A9A9A9",
"Z	c #E8E8E8",
"[	c #D0D0D0",
"]	c #C7C7C7",
"^	c #B9B9B9",
"_	c #ACACAC",
"`	c #A3A3A3",
"a	c #9E9E9E",
"b	c #999999",
"c	c #757575",
"d	c #DBDBDB",
"e	c #BFBFBF",
"f	c #7B7B7B",
"g	c #CBCBCB",
"h	c #747474",
"i	c #BEBEBE",
"j	c #979797",
"k	c #9A9A9A",
"l	c #8F8F8F",
"m	c #9F9F9F",
"                    ",
"          #$        ",
"         %&$        ",
"        $'($        ",
"       $')*$        ",
"     +$'),-$        ",
"    .$')012$$$$$$$3 ",
"   4$))556789:27;<$ ",
"  =>)?05@ABCD>EFG<$ ",
" $H2I?06AJKCDLMNOP$ ",
" $QR'H'SBK#TUVNWX6$ ",
"  $YZ[K]+C^M_G`abB$ ",
"   &cd'eTUS[ASBK#?$ ",
"    NfgQFM#$$$$$$$h ",
"     i$_CMO$        ",
"       $j#k$        ",
"        $=&$        ",
"         l$$        ",
"          m$        ",
"                    "};
