/* XPM */
static const char * newdocument_xpm[] = {
"16 16 80 1",
" 	c None",
"!	c black",
"#	c #FFFF67",
"$	c #FFFF54",
"%	c #FF9B00",
"&	c #FFD300",
"'	c #FFFE4F",
"(	c #FFFF58",
")	c #FFD80D",
"*	c #FA7900",
"+	c #FFFF95",
",	c #FFB400",
"-	c #FFD600",
".	c #FFF53D",
"0	c #FFDB0B",
"1	c #FFA000",
"2	c #FFB100",
"3	c #F0D93B",
"4	c #AEBED4",
"5	c #A9B9CF",
"6	c #A4B3C9",
"7	c #FA8C00",
"8	c #FF9500",
"9	c #FF9100",
":	c white",
";	c #FFFFA8",
"<	c #FF9A00",
"=	c #FFA800",
">	c #9CABC0",
"?	c #364A64",
"@	c #FFE713",
"A	c #FF9200",
"B	c #FFDE05",
"C	c #FFBF00",
"D	c #FFF831",
"E	c #FFE31C",
"F	c #95A4B9",
"G	c #BAC5D4",
"H	c #FFFC4C",
"I	c #FFFF7F",
"J	c #93A2B7",
"K	c #FFF43E",
"L	c #FF9D00",
"M	c #FFDC02",
"N	c #FFFF99",
"O	c #FBFCFD",
"P	c #FFED2C",
"Q	c #FFDB0E",
"R	c #FFAE00",
"S	c #FFE41F",
"T	c #FFED79",
"U	c #FFF49B",
"V	c #FEFEFE",
"W	c #F5F7FA",
"X	c #E9EDF5",
"Y	c #354963",
"Z	c #9EAEC3",
"[	c #F9FAFC",
"]	c #EEF1F7",
"^	c #E1E7F1",
"_	c #9AA9BE",
"`	c #FCFDFE",
"a	c #F2F5F9",
"b	c #E6EBF4",
"c	c #DAE1EE",
"d	c #96A5BA",
"e	c #F7F8FB",
"f	c #EBEFF6",
"g	c #DFE5F0",
"h	c #D3DBEB",
"i	c #F0F3F8",
"j	c #E3E9F2",
"k	c #D8DFED",
"l	c #CBD5E7",
"m	c #DCE3EF",
"n	c #D1D9EA",
"o	c #C4CFE4",
"p	c #D5DDEC",
"q	c #C9D3E6",
"r	c #BDCAE1",
"  #$%&'(        ",
" )*+,-+*.       ",
" 0+*12*+34566   ",
" 789:;,<=::>?6  ",
" -@A&BCDE::FG?6 ",
" H+*=,*+I::J??? ",
" K*+LM+*N::OJJ? ",
"  PQRSTU::VWXJY ",
"    Z:::::[]^JY ",
"    _::::`abcJY ",
"    d::::efghJY ",
"    J:::OijklJY ",
"    J::VWXmnoJY ",
"    J::[]^pqrJY ",
"    J:JJJJJJJJY ",
"    JYYYYYYYYYY "};
