/* XPM */
static const char * newfolder_xpm[] = {
"16 16 154 2",
"  	c None",
"! 	c black",
"# 	c #DAAF28",
"$ 	c #DBAE23",
"% 	c #E0B831",
"& 	c #FFF18C",
"' 	c #E3C258",
"( 	c #FFF190",
") 	c #DFB62E",
"* 	c #ACA48F",
"+ 	c #FFEA7A",
", 	c #FFF396",
"- 	c #FFFEEE",
". 	c #F3E5AD",
"0 	c #FFFDDD",
"1 	c #ECE4B2",
"2 	c #F8EEB6",
"3 	c #F6ECA9",
"4 	c #F3E192",
"5 	c #AAA18D",
"6 	c #B0A484",
"7 	c #D9AA1F",
"8 	c #E1BF53",
"9 	c #F7EEC3",
": 	c #FEFFF4",
"; 	c #F6EBB4",
"< 	c #E4BA32",
"= 	c #ABA28E",
"> 	c #ABA18D",
"? 	c #A9A08C",
"@ 	c #A89F8B",
"A 	c #A79D8A",
"B 	c #A69B89",
"C 	c #A49A87",
"D 	c #D1C180",
"E 	c #F3E591",
"F 	c #FFFBDB",
"G 	c #FFFBC7",
"H 	c #FDEF92",
"I 	c #A8A08B",
"J 	c #F9F0BE",
"K 	c #F8F2B4",
"L 	c #FBEDAB",
"M 	c #FBE9A0",
"N 	c #FCE595",
"O 	c #FBDB71",
"P 	c #E1B934",
"Q 	c #FDEC9B",
"R 	c #E6C65D",
"S 	c #FDEC8D",
"T 	c #DAB332",
"U 	c #A59C88",
"V 	c #F7F0AB",
"W 	c #FAECA2",
"X 	c #FBE694",
"Y 	c #FCE188",
"Z 	c #FCDC7C",
"[ 	c #E8BE46",
"] 	c #F6CC5D",
"^ 	c #F7D05C",
"_ 	c #E7BF36",
"` 	c #E0B63C",
"a 	c #8C7E5F",
"b 	c #A39A86",
"c 	c #FAEEB0",
"d 	c #FAEBA4",
"e 	c #FBE796",
"f 	c #FCE289",
"g 	c #FCDC7E",
"h 	c #F9D570",
"i 	c #F7CD65",
"j 	c #F3C458",
"k 	c #EFBA49",
"l 	c #E7A935",
"m 	c #C78F0C",
"n 	c #6B6357",
"o 	c #9F9583",
"p 	c #FBECA5",
"q 	c #FBE798",
"r 	c #FCE28B",
"s 	c #FBDD7F",
"t 	c #FAD571",
"u 	c #F7CD66",
"v 	c #F0BB4B",
"w 	c #ECB13D",
"x 	c #E3A42C",
"y 	c #BF8A0C",
"z 	c #5C5349",
"{ 	c #9C9180",
"| 	c #F8EDB7",
"} 	c #FBECA9",
"~ 	c #FBE89B",
" !	c #FCE38F",
"!!	c #FBDD80",
"#!	c #FAD573",
"$!	c #F7CE68",
"%!	c #F4C55B",
"&!	c #F0BC4D",
"'!	c #EDB33E",
"(!	c #E8A932",
")!	c #E29E24",
"*!	c #B48210",
"+!	c #4B433B",
",!	c #988E7D",
"-!	c #F6EAB0",
".!	c #FBE99F",
"0!	c #FCE492",
"1!	c #FBDE82",
"2!	c #FAD675",
"3!	c #F7CF69",
"4!	c #F4C65D",
"5!	c #F0BD4E",
"6!	c #ECB441",
"7!	c #E8AA34",
"8!	c #E6A32A",
"9!	c #DC961D",
":!	c #A97C15",
";!	c #3B342D",
"<!	c #958A7A",
"=!	c #F6E8AA",
">!	c #FBDF84",
"?!	c #FAD776",
"@!	c #F7D06A",
"A!	c #F4C75E",
"B!	c #F0BE50",
"C!	c #ECB442",
"D!	c #E9AB36",
"E!	c #E6A42B",
"F!	c #DF9A20",
"G!	c #D79016",
"H!	c #9F771B",
"I!	c #2D2720",
"J!	c #928777",
"K!	c #F0DFA2",
"L!	c #EACD70",
"M!	c #E2B849",
"N!	c #DBAE37",
"O!	c #D9A92D",
"P!	c #D2A126",
"Q!	c #C79821",
"R!	c #BC8E20",
"S!	c #AE831E",
"T!	c #AB7F19",
"U!	c #96721F",
"V!	c #201C15",
"W!	c #8F8475",
"X!	c #857A6C",
"Y!	c #776D60",
"Z!	c #665D51",
"[!	c #544C42",
"]!	c #413A31",
"^!	c #302A23",
"_!	c #221D17",
"`!	c #18130E",
"                                ",
"                  #     $     # ",
"                    % & ' ( )   ",
"  * * * * *       + , - . 0 ,   ",
"* 1 2 2 3 4 5 6   7 8 9 : ; 8 < ",
"= = = > ? @ A B C D E F 9 G H + ",
"I J J J J K L M N O P Q R S T   ",
"U J 2 2 V W X Y Z [ ] ^ _ ` a # ",
"b J 2 c d e f g h i j k l m n   ",
"o J V p q r s t u j v w x y z   ",
"{ | } ~  !!!#!$!%!&!'!(!)!*!+!  ",
",!-!.!0!1!2!3!4!5!6!7!8!9!:!;!  ",
"<!=!N >!?!@!A!B!C!D!E!F!G!H!I!  ",
"J!K!L!M!N!O!P!Q!R!S!T!:!H!U!V!  ",
"W!X!Y!Z![!]!^!_!`!`!`!`!`!`!`!  ",
"                                "};
