/* XPM */
static const char * pin1_xpm[] = {
"20 13 22 1",
" 	c None",
"!	c black",
"#	c #009000",
"$	c #60E056",
"%	c #B7EDB1",
"&	c #44BF3E",
"'	c #F7FEF6",
"(	c #5AE945",
")	c #64EE4E",
"*	c #F6F7F5",
"+	c #D7D7D7",
",	c #F5F6F7",
"-	c #FFFAFF",
".	c #BCBCC0",
"0	c #2FDC21",
"1	c #00C700",
"2	c #73EE65",
"3	c #00C600",
"4	c #00BE00",
"5	c #61D652",
"6	c #67E25A",
"7	c #4DC845",
"        ###         ",
"        #$$#     ###",
"        #$%#######$#",
"        #$%%&$$$&%$#",
"        #$%'(%%%)*$#",
"++++++++#$%,)'-*)*$#",
"........#$%'0%-%&%$#",
"!!!!!!!!#$%$122232$#",
"        #$)&455545$#",
"        #$6&4&&&4&$#",
"        #&7#######7#",
"        #&&#     ###",
"        ###         "};
