/* XPM */
static char * pin1_over_xpm[] = {
"20 13 21 1",
" 	c None",
"!	c black",
"#	c #005D00",
"$	c #37D82B",
"%	c #91E388",
"&	c #369832",
"'	c #CEF9C8",
"(	c #34E01B",
")	c #3BEA1F",
"*	c #DDE0D9",
"+	c #BEBEBE",
",	c white",
"-	c #A2A2A7",
".	c #26B01A",
"0	c #009400",
"1	c #49E937",
"2	c #009300",
"3	c #008B00",
"4	c #40C62F",
"5	c #3FDA2F",
"6	c #39A832",
"        ###         ",
"        #$$#     ###",
"        #$%#######$#",
"        #$%%&$$$&%$#",
"        #$%'(%%%)*$#",
"++++++++#$%,)',*),$#",
"--------#$%'.%'%&%$#",
"!!!!!!!!#$%$011121$#",
"        #$)&344434$#",
"        #$5&3&&&3&$#",
"        #&6#######6#",
"        #&&#     ###",
"        ###         "};
