/* XPM */
static char * pin2_over_xpm[] = {
"20 20 19 1",
" 	c None",
"!	c black",
"#	c #005D00",
"$	c #3CC32E",
"%	c white",
"&	c #65EE47",
"'	c #137212",
"(	c #91E388",
")	c #42E832",
"*	c #368535",
"+	c #147014",
",	c #4A9148",
"-	c #369832",
".	c #2E872A",
"0	c #63EE44",
"1	c #009600",
"2	c #9E9EA3",
"3	c #8F8F93",
"4	c #D7D7DE",
"                    ",
"            ####    ",
"          ##$$$$##  ",
"         #$$%%%&$#  ",
"       ##'$%%%()$*# ",
"      #*%+)%%(&$$,# ",
"      #%%+&&&)$---# ",
"     #*%%+&))$$---# ",
"     #*%&&.&$$---#  ",
"     #*&0)..&$$--#  ",
"     #*0)$$1+++*#   ",
"      #&$$-----#    ",
"     2#$&-----,#    ",
"    23!##&$,###     ",
"    3!   ####       ",
"                    ",
"   4                ",
"                    ",
"                    ",
"                    "};
