/* XPM */
static const char * right_arrow_gray_xpm[] = {
"20 20 90 1",
" 	c None",
"!	c black",
"#	c #D2D2D2",
"$	c #595959",
"%	c #D5D5D5",
"&	c #939393",
"'	c white",
"(	c #959595",
")	c #FEFEFE",
"*	c #B1B1B1",
"+	c #CACACA",
",	c #C9C9C9",
"-	c #767676",
".	c #646464",
"0	c #737373",
"1	c #868686",
"2	c #BCBCBC",
"3	c #C5C5C5",
"4	c #EFEFEF",
"5	c #E1E1E1",
"6	c #7B7B7B",
"7	c #BBBBBB",
"8	c #C2C2C2",
"9	c #C1C1C1",
":	c #B8B8B8",
";	c #DBDBDB",
"<	c #E8E8E8",
"=	c #979797",
">	c #F0F0F0",
"?	c #C4C4C4",
"@	c #C8C8C8",
"A	c #C7C7C7",
"B	c #BFBFBF",
"C	c #B7B7B7",
"D	c #A6A6A6",
"E	c #BABABA",
"F	c #DEDEDE",
"G	c #9C9C9C",
"H	c #7F7F7F",
"I	c #EDEDED",
"J	c #CCCCCC",
"K	c #CDCDCD",
"L	c #CBCBCB",
"M	c #B3B3B3",
"N	c #ACACAC",
"O	c #9A9A9A",
"P	c #9E9E9E",
"Q	c #B2B2B2",
"R	c #6D6D6D",
"S	c #E6E6E6",
"T	c #C6C6C6",
"U	c #B6B6B6",
"V	c #ADADAD",
"W	c #A7A7A7",
"X	c #A3A3A3",
"Y	c #999999",
"Z	c #AEAEAE",
"[	c #6B6B6B",
"]	c #DCDCDC",
"^	c #B4B4B4",
"_	c #B0B0B0",
"`	c #A8A8A8",
"a	c #A4A4A4",
"b	c #AAAAAA",
"c	c #8F8F8F",
"d	c #797979",
"e	c #D7D7D7",
"f	c #D4D4D4",
"g	c #D0D0D0",
"h	c #CECECE",
"i	c #CFCFCF",
"j	c #9B9B9B",
"k	c #B9B9B9",
"l	c #7C7C7C",
"m	c #5E5E5E",
"n	c #A0A0A0",
"o	c #6C6C6C",
"p	c #9D9D9D",
"q	c #B5B5B5",
"r	c #8E8E8E",
"s	c #C0C0C0",
"t	c #BDBDBD",
"u	c #A5A5A5",
"v	c #787878",
"w	c #757575",
"x	c #A1A1A1",
"y	c #676767",
"z	c #8C8C8C",
"{	c #686868",
"|	c #ABABAB",
"        #           ",
"        $%          ",
"        $&$         ",
"        $'($        ",
"        $')*$       ",
"        $'+),-      ",
".01111111'234567    ",
"$'''''''''89:;<$=   ",
"$>,?@,+A?3?BCDEFGH  ",
"$IJ,JKKL@?EMNDOPKQR ",
"$S3833T82UQVWXYO?Z[ ",
"$]B2BBE^Q_N`aYb3cd  ",
"$FeeefghiEaXj^klc   ",
"m$$$$$$$(?Ynk`oV    ",
"        $7pqrRs     ",
"        $tuvw       ",
"        $xyz        ",
"        ${|         ",
"        $@          ",
"                    "};
