/* XPM */
static const char * right_arrow_click_xpm[] = {
"20 20 144 2",
"  	c None",
"! 	c black",
"# 	c #66B760",
"$ 	c #004300",
"% 	c #6DB269",
"& 	c #337A2F",
"' 	c #C7ED9D",
"( 	c #367B31",
") 	c #A9FD80",
"* 	c #94F773",
"+ 	c #47A03E",
", 	c #95BF90",
"- 	c #41ED2B",
". 	c #8AFF6C",
"0 	c #54C644",
"1 	c #166015",
"2 	c #66AE61",
"3 	c #084F08",
"4 	c #145E12",
"5 	c #257223",
"6 	c #27ED16",
"7 	c #31EE25",
"8 	c #6FFD5A",
"9 	c #6EDF59",
": 	c #1B6719",
"; 	c #529D4E",
"< 	c #30F01E",
"= 	c #2CED1F",
"> 	c #1BEB16",
"? 	c #4BFA3F",
"@ 	c #6AF158",
"A 	c #387737",
"B 	c #7FF260",
"C 	c #47E62B",
"D 	c #3FE823",
"E 	c #43ED25",
"F 	c #44F024",
"G 	c #43F225",
"H 	c #3DEE24",
"I 	c #33F21F",
"J 	c #32F321",
"K 	c #30F021",
"L 	c #29EC1D",
"M 	c #28DC1E",
"N 	c #2DB723",
"O 	c #3EC82D",
"P 	c #66E550",
"Q 	c #378B30",
"R 	c #20661D",
"S 	c #76F45A",
"T 	c #4AE830",
"U 	c #42EA2B",
"V 	c #44EE2C",
"W 	c #44F12B",
"X 	c #41F32B",
"Y 	c #3CF329",
"Z 	c #38F226",
"[ 	c #34ED22",
"] 	c #34DB1F",
"^ 	c #39C326",
"_ 	c #39B329",
"` 	c #39A42C",
"a 	c #32912B",
"b 	c #34952E",
"c 	c #50DA3E",
"d 	c #3CB531",
"e 	c #0F590E",
"f 	c #67F351",
"g 	c #3DE628",
"h 	c #37E823",
"i 	c #38EC25",
"j 	c #38ED23",
"k 	c #33F223",
"l 	c #31EC22",
"m 	c #36DF1F",
"n 	c #3EC826",
"o 	c #3CBD28",
"p 	c #3BB22A",
"q 	c #38A92B",
"r 	c #35A22C",
"s 	c #328F2B",
"t 	c #32902D",
"u 	c #40D732",
"v 	c #39B32F",
"w 	c #0E570D",
"x 	c #5AEF47",
"y 	c #32E223",
"z 	c #2CE31E",
"{ 	c #2CE820",
"| 	c #2BEC1D",
"} 	c #30DE1E",
"~ 	c #3BC527",
" !	c #3EBE29",
"!!	c #3BBB28",
"#!	c #39B12A",
"$!	c #38AB2B",
"%!	c #36A22C",
"&!	c #31902B",
"'!	c #37AD2E",
"(!	c #40DC2F",
")!	c #2B8326",
"*!	c #1A601A",
"+!	c #4EFF40",
",!	c #44FE37",
"-!	c #40FF36",
".!	c #41FF35",
"0!	c #46F833",
"1!	c #4FEB34",
"2!	c #4BEC31",
"3!	c #4AEC32",
"4!	c #3ECD28",
"5!	c #37A22B",
"6!	c #36A12C",
"7!	c #33922C",
"8!	c #37C22B",
"9!	c #32D524",
":!	c #197016",
";!	c #306D30",
"<!	c #024B02",
"=!	c #2F892B",
">!	c #3EE12B",
"?!	c #338E2B",
"@!	c #359A2C",
"A!	c #33D326",
"B!	c #2DB725",
"C!	c #0C5C0B",
"D!	c #4C874A",
"E!	c #33DA23",
"F!	c #32962B",
"G!	c #2FD121",
"H!	c #258B22",
"I!	c #0E5A0E",
"J!	c #5D9859",
"K!	c #29E81E",
"L!	c #29B821",
"M!	c #127511",
"N!	c #175D16",
"O!	c #1EBF19",
"P!	c #065F06",
"Q!	c #2D6D2D",
"R!	c #075D07",
"S!	c #4C8349",
"T!	c #649F5F",
"U!	c #9EC195",
"                #                       ",
"                $ %                     ",
"                $ & $                   ",
"                $ ' ( $                 ",
"                $ ) * + $ ,             ",
"                $ ) - . 0 1 2           ",
"3 4 5 5 5 5 5 5 5 ) 6 7 8 9 : ;         ",
"$ ) ) ) ) ) ) ) ) ) < = > ? @ $ A       ",
"$ B C D E F G H I J K L M N O P Q R     ",
"$ S T U V W X Y Z [ ] ^ _ ` a b c d e   ",
"$ f g h i j k l m n o p q r s t u v w   ",
"$ x y z { | } ~  !!!#!$!%!&!'!(!)!*!    ",
"$ +!,!-!.!0!1!2!3!4!5!6!7!8!9!:!;!      ",
"<!$ $ $ $ $ $ $ =!>!?!@!A!B!C!D!        ",
"                $ E!F!G!H!I!J!          ",
"                $ K!L!M!N!              ",
"                $ O!P!Q!                ",
"                $ R!S!                  ",
"                $ T!                    ",
"                U!                      "};
