/* XPM */
static const char * right_arrow_xpm[] = {
"20 20 143 2",
"  	c None",
"! 	c black",
"# 	c #99CF95",
"$ 	c #009000",
"% 	c #9ECC9C",
"& 	c #4BB144",
"' 	c #ECF9DE",
"( 	c #4EB147",
") 	c #DCFECB",
"* 	c #CBFBBB",
"+ 	c #6FC466",
", 	c #80F372",
"- 	c #C7FFB9",
". 	c #8AD87F",
"0 	c #259F23",
"1 	c #97C894",
"2 	c #0F950E",
"3 	c #229E1E",
"4 	c #38AC35",
"5 	c #69F35D",
"6 	c #74F46C",
"7 	c #B1FEA5",
"8 	c #A6EB99",
"9 	c #2BA428",
": 	c #7EBD7B",
"; 	c #72F566",
"< 	c #6FF366",
"= 	c #60F15C",
"> 	c #91FC8A",
"? 	c #A9F79F",
"@ 	c #51AB4F",
"A 	c #B8F8A7",
"B 	c #83EE70",
"C 	c #7BEF68",
"D 	c #80F36C",
"E 	c #81F56C",
"F 	c #81F66D",
"G 	c #7CF46B",
"H 	c #75F667",
"I 	c #75F769",
"J 	c #73F569",
"K 	c #6CF264",
"L 	c #65E95D",
"M 	c #53DC4A",
"N 	c #72DC66",
"O 	c #A0EF92",
"P 	c #51C048",
"Q 	c #32A12F",
"R 	c #B2F9A2",
"S 	c #86F075",
"T 	c #80F170",
"U 	c #83F473",
"V 	c #83F673",
"W 	c #82F773",
"X 	c #7EF771",
"Y 	c #7AF66E",
"Z 	c #75F369",
"[ 	c #6EE85F",
"] 	c #68DE58",
"^ 	c #61D752",
"_ 	c #5BCF4D",
"` 	c #4BC742",
"a 	c #50C748",
"b 	c #8AE67E",
"c 	c #69D45F",
"d 	c #1A9B19",
"e 	c #A6F899",
"f 	c #7BEE6D",
"g 	c #76EF68",
"h 	c #78F26B",
"i 	c #78F36A",
"j 	c #76F66B",
"k 	c #73F268",
"l 	c #71E961",
"m 	c #6EE05A",
"n 	c #69DB57",
"o 	c #63D653",
"p 	c #5CD24E",
"q 	c #56CF4B",
"r 	c #4AC641",
"s 	c #4BC544",
"t 	c #7CE372",
"u 	c #63D45A",
"v 	c #189917",
"w 	c #99F58D",
"x 	c #71EB67",
"y 	c #6CEC62",
"z 	c #6EEF65",
"{ 	c #6DF264",
"| 	c #6CE960",
"} 	c #6BDE5A",
"~ 	c #6ADB58",
" !	c #67DA56",
"!!	c #61D652",
"#!	c #5DD34F",
"$!	c #57CF4B",
"%!	c #4AC642",
"&!	c #5ED255",
"'!	c #7CE771",
"(!	c #3EBF37",
")!	c #2B9C2B",
"*!	c #95FF8C",
"+!	c #8BFE83",
",!	c #89FF83",
"-!	c #89FF82",
".!	c #89FB7D",
"0!	c #8BF279",
"1!	c #88F277",
"2!	c #88F278",
"3!	c #72E062",
"4!	c #58CF4A",
"5!	c #57CE4B",
"6!	c #4DC744",
"7!	c #68DB5E",
"8!	c #6CE462",
"9!	c #28AF23",
":!	c #48A347",
";!	c #059604",
"<!	c #44C23E",
"=!	c #7BEA6E",
">!	c #4BC541",
"?!	c #53CB48",
"@!	c #6CE362",
"A!	c #55DB4D",
"B!	c #15A014",
"C!	c #70AF6E",
"D!	c #6FE663",
"E!	c #4EC945",
"F!	c #65E55A",
"G!	c #36C931",
"H!	c #199C19",
"I!	c #89B886",
"J!	c #6BEF63",
"K!	c #50DE48",
"L!	c #1DB81A",
"M!	c #269B25",
"N!	c #B0C6AD",
"O!	c #44E63F",
"P!	c #0BA70A",
"Q!	c #43A343",
"R!	c #0CA50C",
"S!	c #6EAD6B",
"T!	c #92BC8F",
"                #                       ",
"                $ %                     ",
"                $ & $                   ",
"                $ ' ( $                 ",
"                $ ) * + $               ",
"                $ ) , - . 0 1           ",
"2 3 4 4 4 4 4 4 4 ) 5 6 7 8 9 :         ",
"$ ) ) ) ) ) ) ) ) ) ; < = > ? $ @       ",
"$ A B C D E F G H I J K L M N O P Q     ",
"$ R S T U V W X Y Z [ ] ^ _ ` a b c d   ",
"$ e f g h i j k l m n o p q r s t u v   ",
"$ w x y z { | } ~  !!!#!$!%!&!'!(!)!    ",
"$ *!+!,!-!.!0!1!2!3!4!5!6!7!8!9!:!      ",
";!$ $ $ $ $ $ $ <!=!>!?!@!A!B!C!        ",
"                $ D!E!F!G!H!I!          ",
"                $ J!K!L!M!N!            ",
"                $ O!P!Q!                ",
"                $ R!S!                  ",
"                $ T!                    ",
"                                        "};
