/* XPM */ 
static const char * search_xpm[] = {
"18 12 75 1",
" 	c None",
"!	c black",
"#	c #7496BB",
"$	c #83A8D2",
"%	c #729AC5",
"&	c #98AEC7",
"'	c #C1D8F1",
"(	c #C6DDF6",
")	c #C2D9F3",
"*	c #A4BFDC",
"+	c #93AAC2",
",	c #D2E5FB",
"-	c #E0ECFA",
".	c #DAE8F6",
"0	c #DAE9F7",
"1	c #D5E6F9",
"2	c #A2BBD9",
"3	c #5E86B0",
"4	c #C1D8F2",
"5	c #DFECF8",
"6	c #CEE1F4",
"7	c #C6DDF4",
"8	c #C4DCF3",
"9	c #D0E4F7",
":	c #BCD4ED",
";	c #7998BC",
"<	c #7CA4CE",
"=	c #C3DBF4",
">	c #D8E7F6",
"?	c #C5DCF4",
"@	c #C6DCF4",
"A	c #C3DBF3",
"B	c #C1DAF4",
"C	c #B9D3F0",
"D	c #7899C3",
"E	c #6E96C2",
"F	c #BDD6F0",
"G	c #D6E7F7",
"H	c #C1D9F3",
"I	c #C1DAF3",
"J	c #BDD8F2",
"K	c #BED8F3",
"L	c #B5D0EE",
"M	c #6D91BE",
"N	c #A0BAD8",
"O	c #D4E5F9",
"P	c #CADFF5",
"Q	c #BCD7F2",
"R	c #BCD7F3",
"S	c #CEE4FA",
"T	c #ADC4E0",
"U	c #717E92",
"V	c #728EB2",
"W	c #A1BCDD",
"X	c #C6DBF2",
"Y	c #C7DDF4",
"Z	c #ABC5E4",
"[	c #A5B4CA",
"]	c #C69B6F",
"^	c #8E5F2C",
"_	c #7999C1",
"`	c #799BC6",
"a	c #7093C2",
"b	c #5E728D",
"c	c #C19D73",
"d	c #E7C39D",
"e	c #B98954",
"f	c #834F0E",
"g	c #5F2E12",
"h	c #BB8C57",
"i	c #DFB88E",
"j	c #A5702F",
"k	c #6B4110",
"l	c #AA7739",
"m	c #905F20",
"                  ",
"    #$%           ",
"   &'()*          ",
"  +,-.012         ",
" 3456789:;        ",
" <=>?@ABCD        ",
" EFGHIJKLM        ",
"  NOPQRSTU   !!!! ",
"  VWXY7Z[]^   !!  ",
"    _`abcdef      ",
"        ghij      ",
"         klm      "};