/* XPM */ 
static char * search_re_xpm[] = {
"18 12 100 2",
"  	c None",
"! 	c black",
"# 	c #60B948",
"$ 	c #69CB50",
"% 	c #65C34D",
"& 	c #5DB446",
"' 	c #4E963A",
"( 	c #4F983B",
") 	c #4B9038",
"* 	c #438132",
"+ 	c #3E782F",
", 	c #6CD051",
"- 	c #EBF7E1",
". 	c #E8F5DC",
"0 	c #D1E8BF",
"1 	c #4C9239",
"2 	c #BFDFA9",
"3 	c #C2E8AD",
"4 	c #396E2B",
"5 	c #BBD6F2",
"6 	c #69CA4F",
"7 	c #E7F4DB",
"8 	c #54A240",
"9 	c #C5E2B1",
": 	c #478835",
"; 	c #B2D799",
"< 	c #376B29",
"= 	c #366829",
"> 	c #BBD5F2",
"? 	c #66C34C",
"@ 	c #E0F1D2",
"A 	c #D3EAC1",
"B 	c #C7E4B3",
"C 	c #417D31",
"D 	c #9DCB81",
"E 	c #87BE69",
"F 	c #2D5622",
"G 	c #2E5923",
"H 	c #BAD5F1",
"I 	c #61BB4A",
"J 	c #D6EBC5",
"K 	c #ABD793",
"L 	c #488A36",
"M 	c #8BBF6C",
"N 	c #336226",
"O 	c #305C24",
"P 	c #020401",
"Q 	c #080E05",
"R 	c #5A919E",
"S 	c #D3E3FF",
"T 	c #5DB246",
"U 	c #CAE5B8",
"V 	c #008000",
"W 	c #366729",
"X 	c #78B45A",
"Y 	c #63A949",
"Z 	c #519D3B",
"[ 	c #22431A",
"] 	c #6896B3",
"^ 	c #C9DEFC",
"_ 	c #72AA74",
"` 	c #56974A",
"a 	c #78A683",
"b 	c #5B8B5C",
"c 	c #538153",
"d 	c #476D46",
"e 	c #244719",
"f 	c #203D17",
"g 	c #284D1E",
"h 	c #446D9D",
"i 	c #B0CAE7",
"j 	c #D8E8FA",
"k 	c #D0E4F9",
"l 	c #B3D0EB",
"m 	c #C5DDF3",
"n 	c #AEC6E3",
"o 	c #5D769E",
"p 	c #7C97B8",
"q 	c #B3CCEA",
"r 	c #CBE1F7",
"s 	c #CCE2F8",
"t 	c #BDD6F3",
"u 	c #A4B9D5",
"v 	c #AF8F71",
"w 	c #6782A2",
"x 	c #8CABD0",
"y 	c #8FAED5",
"z 	c #87A7D1",
"{ 	c #6F86A3",
"| 	c #C0A78A",
"} 	c #E8C197",
"~ 	c #AD7C45",
" !	c #8C4C00",
"!!	c #74401F",
"#!	c #C39767",
"$!	c #DFB88E",
"%!	c #9E6C2D",
"&!	c #714512",
"'!	c #AF7E42",
"(!	c #946323",
"      # $ % & ' ( ) * +             ",
"      , - . 0 1 2 3 3 4             ",
"    5 6 7 8 9 : ; + < =             ",
"    > ? @ A B C D E F G             ",
"    H I J K L C M N F O   P Q ! !   ",
"  R S T U V K W X Y Z [     ! !     ",
"  ] ^ _ ` a b c d e f g             ",
"  h i j k 5 l m n o                 ",
"    p q k r s t u v                 ",
"      w x y z { | } ~  !            ",
"                !!#!$!%!            ",
"                  &!'!(!            "};