/* XPM */ 
static const char * share_xpm[] = {
"32 32 417 2",
"  	c None",
"! 	c black",
"# 	c #4E5D6C",
"$ 	c #96A5B2",
"% 	c #AABAC8",
"& 	c #BED0DF",
"' 	c #BCD1E2",
"( 	c #B5CDDE",
") 	c #AEC6D8",
"* 	c #A0B6C8",
"+ 	c #8093A4",
", 	c #5D6E7E",
"- 	c #A0AEBB",
". 	c #C9D8E4",
"0 	c #CADEEC",
"1 	c #BDD9DB",
"2 	c #B1D5CB",
"3 	c #A5CEBB",
"4 	c #9AC8B0",
"5 	c #95C5AD",
"6 	c #92C2AD",
"7 	c #93BEB8",
"8 	c #97B8C5",
"9 	c #8097AC",
": 	c #3F5469",
"; 	c #B9C6D3",
"< 	c #C9DDEB",
"= 	c #C2DDEE",
"> 	c #B1D5CD",
"? 	c #A3CEB5",
"@ 	c #9CCAAA",
"A 	c #9BC9A6",
"B 	c #95C6A4",
"C 	c #8DC2A2",
"D 	c #86BEA0",
"E 	c #7FB99D",
"F 	c #7BB499",
"G 	c #7DAFA6",
"H 	c #80A0B6",
"I 	c #3D5771",
"J 	c #B6C6D4",
"K 	c #BFD7E8",
"L 	c #B8D7EB",
"M 	c #AFD6DF",
"N 	c #92C5A8",
"O 	c #88BF9A",
"P 	c #8CC299",
"Q 	c #8FC399",
"R 	c #8BC198",
"S 	c #84BD96",
"T 	c #7BB894",
"U 	c #73B491",
"V 	c #6CAE8D",
"W 	c #66A889",
"X 	c #64A38B",
"Y 	c #6A92A8",
"Z 	c #2A4967",
"[ 	c #A4B8C7",
"] 	c #AFCCD1",
"^ 	c #A5CBD7",
"_ 	c #A7D1EA",
"` 	c #9DCED8",
"a 	c #75B691",
"b 	c #76B68A",
"c 	c #7BB88A",
"d 	c #7CB98A",
"e 	c #7AB889",
"f 	c #74B588",
"g 	c #7EBCA2",
"h 	c #92CAD8",
"i 	c #82C0D5",
"j 	c #73B3C7",
"k 	c #66A6BA",
"l 	c #649BBF",
"m 	c #467199",
"n 	c #26435F",
"o 	c #94A7B6",
"p 	c #91B9AB",
"q 	c #87BAA3",
"r 	c #85BBB8",
"s 	c #92C9E8",
"t 	c #94CDEC",
"u 	c #A3D5EC",
"v 	c #8FC7BB",
"w 	c #67AE7C",
"x 	c #68AE7C",
"y 	c #66AD7B",
"z 	c #62AB7A",
"{ 	c #9BD0DD",
"| 	c #95CEEC",
"} 	c #81C3E7",
"~ 	c #73B6DF",
" !	c #64A7D4",
"!!	c #5698C9",
"#!	c #4C82B2",
"$!	c #335A7F",
"%!	c #243E58",
"&!	c #8CAEAA",
"'!	c #72AC90",
"(!	c #66A88E",
")!	c #79B6DA",
"*!	c #77BCE3",
"+!	c #85C6E9",
",!	c #97D0ED",
"-!	c #A2D5EA",
".!	c #52A36E",
"0!	c #54A46D",
"1!	c #52A36D",
"2!	c #5CA980",
"3!	c #9AD2EE",
"4!	c #8AC9EA",
"5!	c #77BEE6",
"6!	c #69B2DE",
"7!	c #5AA4D4",
"8!	c #4090A4",
"9!	c #2E8073",
":!	c #396E8D",
";!	c #294966",
"<!	c #6F889E",
"=!	c #70A58C",
">!	c #589E7D",
"?!	c #559F9E",
"@!	c #64ACD9",
"A!	c #6CB7E2",
"B!	c #7CC2E8",
"C!	c #8CCBEC",
"D!	c #79BEBC",
"E!	c #499E68",
"F!	c #4A9F69",
"G!	c #75BAB2",
"H!	c #90CDEC",
"I!	c #82C6E9",
"J!	c #73BDE5",
"K!	c #67B1DE",
"L!	c #5AA5D5",
"M!	c #4C97C7",
"N!	c #328588",
"O!	c #257851",
"P!	c #2D5870",
"Q!	c #5D7F8F",
"R!	c #559776",
"S!	c #3E906A",
"T!	c #4B99B1",
"U!	c #5EA8D7",
"V!	c #6AB4E0",
"W!	c #75BEE6",
"X!	c #7DC2DE",
"Y!	c #449C6C",
"Z!	c #449C67",
"[!	c #459C68",
"]!	c #74BAB8",
"^!	c #8FCCEC",
"_!	c #87C8EA",
"`!	c #7BC1E8",
"a!	c #6FB9E3",
"b!	c #65B0DD",
"c!	c #5AA4D5",
"d!	c #4E98CC",
"e!	c #438BBF",
"f!	c #257B54",
"g!	c #23694F",
"h!	c #264460",
"i!	c #4D7883",
"j!	c #3C8962",
"k!	c #28835B",
"l!	c #4E99C9",
"m!	c #5BA6D6",
"n!	c #6FBAE3",
"o!	c #6EB9D2",
"p!	c #3C9766",
"q!	c #3F9966",
"r!	c #4DA27F",
"s!	c #88C8EB",
"t!	c #83C6E9",
"u!	c #7DC2E8",
"v!	c #6BB5E0",
"w!	c #62ACDA",
"x!	c #58A3D3",
"y!	c #4D97CB",
"z!	c #448CC2",
"{!	c #277C5A",
"|!	c #207142",
"}!	c #284966",
"~!	c #3B6C7A",
" #	c #277D51",
"!#	c #238055",
"##	c #4594B3",
"$#	c #57A2D3",
"%#	c #61ACDA",
"&#	c #69B3DF",
"'#	c #6EB9E1",
"(#	c #3B976D",
")#	c #399665",
"*#	c #55A89B",
"+#	c #78C0E7",
",#	c #72BCE5",
"-#	c #6CB7E1",
".#	c #66B0DD",
"0#	c #559FD1",
"1#	c #4B95CA",
"2#	c #438BC0",
"3#	c #287D5B",
"4#	c #2B7257",
"5#	c #2B4B69",
"6#	c #2F6371",
"7#	c #237A4E",
"8#	c #237F54",
"9#	c #388C8F",
":#	c #539DCF",
";#	c #5CA6D6",
"<#	c #63ADDB",
"=#	c #68B3DF",
">#	c #58A9B3",
"?#	c #359365",
"@#	c #56A9AA",
"A#	c #70BBE4",
"B#	c #6EB9E3",
"C#	c #6BB5E1",
"D#	c #66B1DD",
"E#	c #60ABD9",
"F#	c #59A4D4",
"G#	c #519BCE",
"H#	c #4892C8",
"I#	c #4589BE",
"J#	c #4982AF",
"K#	c #457095",
"L#	c #2E4F6C",
"M#	c #2C606B",
"N#	c #23794C",
"O#	c #237E53",
"P#	c #368991",
"Q#	c #4E99CC",
"R#	c #56A0D1",
"S#	c #5CA7D6",
"T#	c #57A7B7",
"U#	c #3B9675",
"V#	c #4CA19C",
"W#	c #5BAAC0",
"X#	c #64AEDC",
"Y#	c #60AAD9",
"Z#	c #549ED0",
"[#	c #4C97CB",
"]#	c #468FC5",
"^#	c #4A8ABD",
"_#	c #4F83B1",
"`#	c #497196",
"a#	c #33526F",
"b#	c #2F5975",
"c#	c #28745B",
"d#	c #2D7E6D",
"e#	c #428ABD",
"f#	c #4893C8",
"g#	c #4F9ACD",
"h#	c #5EA9D8",
"i#	c #5AA7C8",
"j#	c #449993",
"k#	c #4E9FAD",
"l#	c #5DA7D7",
"m#	c #59A3D4",
"n#	c #549FD0",
"o#	c #4993C8",
"p#	c #4A8FC2",
"q#	c #508ABA",
"r#	c #5382AD",
"s#	c #4D7192",
"t#	c #36536F",
"u#	c #2F5475",
"v#	c #3B6A94",
"w#	c #457EAF",
"x#	c #4988BC",
"y#	c #478FC4",
"z#	c #4C95C9",
"{#	c #509ACD",
"|#	c #57A1D2",
"}#	c #59A3D3",
"~#	c #56A0D2",
" $	c #4F9BC6",
"!$	c #4091A3",
"#$	c #4B94C9",
"$$	c #4890BC",
"%$	c #4A8CAC",
"&$	c #568AB8",
"'$	c #557FA6",
"($	c #4F6F8D",
")$	c #36526E",
"*$	c #2D4F6F",
"+$	c #365F86",
",$	c #4476A4",
"-$	c #5289B9",
".$	c #508FC0",
"0$	c #4F94C7",
"1$	c #5198CA",
"2$	c #549BCD",
"3$	c #569DCE",
"4$	c #589FD0",
"5$	c #579FD0",
"6$	c #4F9AC0",
"7$	c #3E9192",
"8$	c #2D8869",
"9$	c #2F876C",
":$	c #438EA7",
";$	c #3A8A78",
"<$	c #4C8B98",
"=$	c #5A87B1",
">$	c #567B9D",
"?$	c #4E6A85",
"@$	c #305477",
"A$	c #3C6A93",
"B$	c #5A88B3",
"C$	c #598FBD",
"D$	c #5793C2",
"E$	c #5696C7",
"F$	c #5699CA",
"G$	c #579BCC",
"H$	c #589CCD",
"I$	c #589DCD",
"J$	c #579CCD",
"K$	c #3E9084",
"L$	c #328A62",
"M$	c #338A63",
"N$	c #378B65",
"O$	c #3B8C66",
"P$	c #408D68",
"Q$	c #528D8E",
"R$	c #5E84A9",
"S$	c #577794",
"T$	c #4C677F",
"U$	c #274560",
"V$	c #567FA4",
"W$	c #618EB7",
"X$	c #6193BF",
"Y$	c #5F96C3",
"Z$	c #5D98C6",
"[$	c #5C9AC9",
"]$	c #5B9BCA",
"^$	c #5B9BCB",
"_$	c #5A9ACA",
"`$	c #46928C",
"a$	c #3E8F6A",
"b$	c #459174",
"c$	c #4B927A",
"d$	c #4B936F",
"e$	c #509471",
"f$	c #638E9E",
"g$	c #6483A0",
"h$	c #536E88",
"i$	c #284663",
"j$	c #43688A",
"k$	c #6488AA",
"l$	c #6891B7",
"m$	c #6996BF",
"n$	c #6798C2",
"o$	c #6699C4",
"p$	c #649AC5",
"q$	c #639AC6",
"r$	c #6399C0",
"s$	c #6099AB",
"t$	c #6C9BC2",
"u$	c #709BC2",
"v$	c #6A98A7",
"w$	c #6B94A4",
"x$	c #6F8CA8",
"y$	c #5F7A93",
"z$	c #344657",
"{$	c #274663",
"|$	c #537492",
"}$	c #658C9E",
"~$	c #619492",
" %	c #609791",
"!%	c #5E9890",
"#%	c #5D9992",
"$%	c #6299A3",
"%%	c #709BC3",
"&%	c #729DC3",
"'%	c #759EC2",
"(%	c #779DC0",
")%	c #789ABB",
"*%	c #7398A7",
"+%	c #7493A3",
",%	c #6A8199",
"-%	c #334557",
".%	c #233C54",
"0%	c #4D7281",
"1%	c #5C9575",
"2%	c #5D9775",
"3%	c #5D9876",
"4%	c #5D9978",
"5%	c #5F9B7B",
"6%	c #6A9D93",
"7%	c #799CB8",
"8%	c #7C9BB9",
"9%	c #7D9AB5",
":%	c #7E98B1",
";%	c #7E95AB",
"<%	c #637A90",
"=%	c #243240",
">%	c #111E29",
"?%	c #385569",
"@%	c #577C84",
"A%	c #6B928D",
"B%	c #6B9986",
"C%	c #6B9F80",
"D%	c #6EA182",
"E%	c #75A090",
"F%	c #8199B0",
"G%	c #8298AD",
"H%	c #6C8298",
"I%	c #425667",
"J%	c #090E12",
"K%	c #0C151D",
"L%	c #283D50",
"M%	c #475D72",
"N%	c #556D7F",
"O%	c #5A7580",
"P%	c #586E7F",
"Q%	c #4B5F72",
"R%	c #273747",
"                                                                ",
"                                                                ",
"                                                                ",
"                                                                ",
"                                #                               ",
"                        $ % & ' ( ) * + ,                       ",
"                    - . 0 1 2 3 4 5 6 7 8 9 :                   ",
"                  ; < = > ? @ A B C D E F G H I                 ",
"                J K L M N O P Q R S T U V W X Y Z               ",
"              [ ] ^ _ ` a b c d e f g h i j k l m n             ",
"            o p q r s t u v w x y z { | } ~  !!!#!$!%!          ",
"            &!'!(!)!*!+!,!-!.!0!1!2!3!4!5!6!7!8!9!:!;!          ",
"          <!=!>!?!@!A!B!C!D!E!F!E!G!H!I!J!K!L!M!N!O!P!          ",
"          Q!R!S!T!U!V!W!X!Y!Z![!]!^!_!`!a!b!c!d!e!f!g!h!        ",
"          i!j!k!l!m!b!n!o!p!q!r!s!t!u!J!v!w!x!y!z!{!|!}!        ",
"          ~! #!###$#%#&#'#(#)#*#`!+#,#-#.#U!0#1#2#3#4#5#        ",
"          6#7#8#9#:#;#<#=#>#?#@#A#B#C#D#E#F#G#H#I#J#K#L#        ",
"          M#N#O#P#Q#R#S#%#b!T#U#V#W#X#Y#L!Z#[#]#^#_#`#a#        ",
"          b#c#d#e#f#g#R#L!h#E#i#j#k#l#m#n#Q#o#p#q#r#s#t#        ",
"          u#v#w#x#y#z#{#Z#|#}#c!7!x!~# $!$#$$$%$&$'$($)$        ",
"          *$+$,$-$.$0$1$2$3$4$5$5$6$7$8$9$:$;$<$=$>$?$          ",
"            @$A$B$C$D$E$F$G$H$I$J$K$L$M$N$O$P$Q$R$S$T$          ",
"            U$$!V$W$X$Y$Z$[$]$^$_$`$a$b$c$d$e$f$g$h$            ",
"              i$j$k$l$m$n$o$p$q$q$r$s$t$u$v$w$x$y$z$            ",
"                {$|$}$~$ %!%#%$%%%&%'%(%)%*%+%,%-%              ",
"                  .%0%1%2%3%4%5%6%7%8%9%:%;%<%=%                ",
"                    >%?%@%A%B%C%D%E%F%G%H%I%J%                  ",
"                        K%L%M%N%O%P%Q%R%                        ",
"                                                                ",
"                                                                ",
"                                                                ",
"                                                                "};