/* XPM */
static char * tmbundle_xpm[] = {
"16 16 159 2",
"  	c None",
"! 	c #FEFEFE",
"# 	c #FDFDFD",
"$ 	c #FEFFFF",
"% 	c #FDFBFA",
"& 	c #F5EEE3",
"' 	c #F0E3D2",
"( 	c #E9D5BB",
") 	c #E6D1B4",
"* 	c #FCFBF9",
"+ 	c white",
", 	c #FEFEFD",
"- 	c #FEFDFD",
". 	c #E7D1B2",
"0 	c #DEC299",
"1 	c #DEC199",
"2 	c #DEC096",
"3 	c #D8BB92",
"4 	c #DCC4A2",
"5 	c #E5CEAC",
"6 	c #E7D1B1",
"7 	c #EAD4B4",
"8 	c #F2E3CD",
"9 	c #FDFCFB",
": 	c #FFFFFE",
"; 	c #F8EFE3",
"< 	c #E4C495",
"= 	c #E2C396",
"> 	c #DFC195",
"? 	c #DFC094",
"@ 	c #D5B88E",
"A 	c #D2B489",
"B 	c #DDBE90",
"C 	c #DFBF92",
"D 	c #E3C394",
"E 	c #E7C798",
"F 	c #F9F2E8",
"G 	c #FDFDFC",
"H 	c #FEFDFC",
"I 	c #F4DFBF",
"J 	c #F0CF9F",
"K 	c #F1D3A5",
"L 	c #F0D1A3",
"M 	c #E0C298",
"N 	c #D6B990",
"O 	c #E5C79B",
"P 	c #E6C89C",
"Q 	c #E9CCA0",
"R 	c #EBCC9C",
"S 	c #F1DAB8",
"T 	c #FAF5EB",
"U 	c #EBCC9E",
"V 	c #E3C598",
"W 	c #D9BC8F",
"X 	c #CAAE83",
"Y 	c #B99E74",
"Z 	c #AA916A",
"[ 	c #C7AC83",
"] 	c #DABD90",
"^ 	c #DFC295",
"_ 	c #E7C99B",
"` 	c #EBCDA0",
"a 	c #EBCC9B",
"b 	c #F9EEDE",
"c 	c #E8D8C4",
"d 	c #C9A97F",
"e 	c #C4A781",
"f 	c #BC9E79",
"g 	c #B89B76",
"h 	c #B69875",
"i 	c #BC9D79",
"j 	c #C6A782",
"k 	c #CAAB85",
"l 	c #CFB089",
"m 	c #D3B48D",
"n 	c #D7B891",
"o 	c #D9B98E",
"p 	c #E4CCAC",
"q 	c #EDDCC8",
"r 	c #DBB892",
"s 	c #E0C09B",
"t 	c #E2C09B",
"u 	c #E3C29D",
"v 	c #E4C29D",
"w 	c #E3C29C",
"x 	c #E1C09B",
"y 	c #E0BF9A",
"z 	c #DFBE99",
"{ 	c #DEBD98",
"| 	c #DEBC99",
"} 	c #E4CAAF",
"~ 	c #ECDDCC",
" !	c #D7B48D",
"!!	c #D9BA95",
"#!	c #D9B894",
"$!	c #D9B893",
"%!	c #D9B994",
"&!	c #DAB994",
"'!	c #DABA96",
"(!	c #D7B68E",
")!	c #E4CDB3",
"*!	c #EBDDCD",
"+!	c #D0AE87",
",!	c #D3B48F",
"-!	c #D3B38E",
".!	c #D3B490",
"0!	c #D0AE88",
"1!	c #E2CDB5",
"2!	c #EBDFD0",
"3!	c #CAA882",
"4!	c #CDAE8A",
"5!	c #CDAD89",
"6!	c #CDAE89",
"7!	c #CDAF8B",
"8!	c #CAA981",
"9!	c #E1CFB9",
":!	c #E6DBCE",
";!	c #C3A37C",
"<!	c #C7A984",
"=!	c #C7A883",
">!	c #C7A884",
"?!	c #C7A986",
"@!	c #C3A27C",
"A!	c #DDCCB9",
"B!	c #FBFFFF",
"C!	c #D3C9BD",
"D!	c #BD9D77",
"E!	c #C1A37E",
"F!	c #C1A17D",
"G!	c #C0A27D",
"H!	c #C1A27D",
"I!	c #BE9E77",
"J!	c #CABBAA",
"K!	c #F8FCFF",
"L!	c #D3CBC0",
"M!	c #B79973",
"N!	c #BB9E7A",
"O!	c #BB9E79",
"P!	c #BA9D79",
"Q!	c #BB9D79",
"R!	c #BB9F7A",
"S!	c #B89973",
"T!	c #CABDAF",
"U!	c #FDFEFF",
"V!	c #D8D1C7",
"W!	c #AD8E66",
"X!	c #B2936C",
"Y!	c #B2926B",
"Z!	c #B1926B",
"[!	c #B2926A",
"]!	c #B2946D",
"^!	c #AD8D63",
"_!	c #CFC5B7",
"`!	c #E9E7E4",
"a!	c #C6BBAD",
"b!	c #C7BCAE",
"c!	c #C5B9AB",
"d!	c #E4E0DC",
"e!	c #FEFEFF",
"! # $ % & ' ( ) * + + + + ! ! + ",
", ! - . 0 1 2 3 4 5 6 7 8 + ! ! ",
"9 : ; < = > ? @ A B C D E F + G ",
"H + I J K L L M N O P Q R S ! H ",
"+ T U V W X Y Z [ ] ^ _ ` a b + ",
"! c d e f g h i j k l m n o p ! ",
"+ q r s t u v w x y z { | r } + ",
"+ ~  !!!#!$!$!#!$!%!&!&!'!(!)!+ ",
"$ *!+!,!-!-!-!-!-!-!-!-!.!0!1!$ ",
"+ 2!3!4!5!5!5!5!5!6!6!6!7!8!9!+ ",
"$ :!;!<!=!=!=!=!=!>!=!>!?!@!A!$ ",
"B!C!D!E!F!G!H!H!H!H!H!G!E!I!J!K!",
"$ L!M!N!O!P!O!Q!O!O!O!O!R!S!T!U!",
"+ V!W!X!Y!Z!Y![!Y!Y!Y!Y!]!^!_!+ ",
"$ `!a!b!b!b!b!b!b!b!b!b!b!c!d!e!",
"+ + + + + + + + + + + + + + + + "};
