/* XPM */
static char * tmcommand_xpm[] = {
"16 16 84 1",
" 	c None",
"!	c black",
"#	c #F7FBF3",
"$	c #D1EABA",
"%	c #B9E098",
"&	c #A7D87C",
"'	c #9ED46F",
"(	c #EAF5E0",
")	c #BAE099",
"*	c #9CD36B",
"+	c #9CD36C",
",	c #EBF5E0",
"-	c #B0DB89",
".	c #98D166",
"0	c #98D165",
"1	c #95D061",
"2	c #96D062",
"3	c #99D166",
"4	c #9BD26B",
"5	c #EBF4E0",
"6	c #9BD26A",
"7	c #99D267",
"8	c #B6DE92",
"9	c #B7DF94",
":	c #B2DC8C",
";	c #A5D778",
"<	c #B9E097",
"=	c #FBFDF9",
">	c #D1EABB",
"?	c #9CD26B",
"@	c #99D167",
"A	c #B2DD8D",
"B	c #E9F5E0",
"C	c #EFF7E7",
"D	c #F0F8E8",
"E	c #E1F1D2",
"F	c #A7D77C",
"G	c #97D165",
"H	c #9BD269",
"I	c #DBEFC9",
"J	c #BAE098",
"K	c #ECF6E4",
"L	c #D5ECC0",
"M	c #94CE5D",
"N	c #8ACB50",
"O	c #A6D67A",
"P	c #C8E5AD",
"Q	c #A6D77B",
"R	c #BFE3A0",
"S	c #A7D77D",
"T	c #97D064",
"U	c #BFE2A0",
"V	c #F1F9EC",
"W	c #9DD36D",
"X	c #A0D471",
"Y	c #9AD268",
"Z	c #94CF5F",
"[	c #9CD36A",
"]	c #AAD980",
"^	c #9FD470",
"_	c #9AD169",
"`	c #C9E7AF",
"a	c #EAF5DF",
"b	c #92CD5C",
"c	c #9ED36F",
"d	c #9FD570",
"e	c #97D164",
"f	c #F1F8EB",
"g	c #9AD168",
"h	c #97D065",
"i	c #A9D87E",
"j	c #F0F7E9",
"k	c #D8EEC6",
"l	c #9AD269",
"m	c #88CA4E",
"n	c #99D168",
"o	c #B4DD8F",
"p	c #EBF6E3",
"q	c #F2F9ED",
"r	c #E9F5DF",
"s	c #A7D77B",
"t	c #B5DE90",
"u	c #95D060",
"v	c #DBEFC8",
"    #$%&'&%$#   ",
"   ()**+++**)(  ",
"  ,-.+011234.-5 ",
" #)067&89:;**0<=",
" >?*@ABC(DEFG+HI",
" J*0&KLMNOPQ.46R",
" S6TUVW6XYZY*[6]",
" ^_@`abc6W^+6*Hd",
" S6eUf+gXYZY*[6]",
" J*hijklmOPQ.46R",
" >??nopqrDEFG+HI",
"  )067st9:;**0< ",
"  ,-.+01u234.-5 ",
"   (JH6*+*6HJ(  ",
"     vR]d]Rv    ",
"                "};
