/* XPM */
static const char * tmdragcmd_xpm[] = {
"16 16 50 1",
" 	c None",
"!	c black",
"#	c #FFF7F7",
"$	c #FFD5D5",
"%	c #FFBAB9",
"&	c #FFA4A2",
"'	c #FF9B99",
"(	c #FFFEFE",
")	c #FFE5E5",
"*	c #FFB3B2",
"+	c #FF9694",
",	c #FFABA9",
"-	c #FF9492",
".	c #FF9290",
"0	c #FF9391",
"1	c #FF9593",
"2	c #FFB3B1",
"3	c #FFA2A0",
"4	c #FFB0AE",
"5	c #FFB5B3",
"6	c #FFB4B2",
"7	c #FFACAA",
"8	c #FF9796",
"9	c #FF9896",
":	c #FFD2D1",
";	c white",
"<	c #FFE6E6",
"=	c #FFECEB",
">	c #FFF2F1",
"?	c #FFC8C7",
"@	c #FF9897",
"A	c #FFD3D3",
"B	c #FFDEDD",
"C	c #FF7E7B",
"D	c #FF8E8C",
"E	c #FFB5B4",
"F	c #FFF5F5",
"G	c #FFBFBF",
"H	c #FFA4A3",
"I	c #FFD2D2",
"J	c #FFE1E0",
"K	c #FF8B89",
"L	c #FF8684",
"M	c #FFDFDF",
"N	c #FFA1A0",
"O	c #FF9491",
"P	c #FF908E",
"Q	c #FFB9B8",
"R	c #FFE0DF",
"S	c #FFA5A5",
"    #$%&'&%$#   ",
"  ()*+++++++*)( ",
"  ),+-...01++,) ",
" #2++345678-++2#",
" $+19:;<=>?@-++$",
" %+19ABCDEFG-1+%",
" H+19IJK+L?MNO+H",
" '+19IJK+PQRSO+'",
" H+19IJK+L?MNO+H",
" %+19ABCDEFG-1+%",
" $+19:;<=>?@-++$",
" #2++345678-++2#",
"  ),+-...01++,) ",
"  ()*+++++++*)( ",
"    #$%&'&%$#   ",
"                "};
