/* XPM */
static const char * tmlanguage_xpm[] = {
"16 16 38 1",
" 	c None",
"!	c black",
"#	c #EFEFEF",
"$	c #A3A3A3",
"%	c #777777",
"&	c #535353",
"'	c #414141",
"(	c #D5D5D5",
")	c #3D3D3D",
"*	c #636363",
"+	c #353535",
",	c #373737",
"-	c #3B3B3B",
".	c #393939",
"0	c #626262",
"1	c #454545",
"2	c #3C3C3C",
"3	c #3A3A3A",
"4	c #757575",
"5	c #F7F7F7",
"6	c #A5A5A5",
"7	c #646464",
"8	c #EAEAEA",
"9	c #B7B7B7",
":	c #818181",
";	c #656565",
"<	c #767676",
"=	c #444444",
">	c #575757",
"?	c #434343",
"@	c #666666",
"A	c #848484",
"B	c #4E4E4E",
"C	c #484848",
"D	c #8D8D8D",
"E	c #5F5F5F",
"F	c #676767",
"G	c #5D5D5D",
"    #$%&'&%$#   ",
"   (%)))))))%(  ",
"  (*+)))),)-+*( ",
" #%+-.0)12-33+45",
" 6-))78%12-3,).9",
" %)))*8%12-.,--:",
" &-));8<=-33.)->",
" ?.))@8%1-..-).?",
" &-));8A>BC)--->",
" %)))08888D&---:",
" 6--)1EFFFG?-).9",
"  %+-.......-+4 ",
"  (*+)),,,)-+*( ",
"   (%.-)))-.%(  ",
"     9:>?>:9    ",
"                "};
