/* XPM */
static char * tmprefs_xpm[] = {
"16 16 46 1",
" 	c None",
"!	c black",
"#	c #F7F7F7",
"$	c #D1D1D1",
"%	c #BBBBBB",
"&	c #A9A9A9",
"'	c #A0A0A0",
"(	c #EAEAEA",
")	c #9E9E9E",
"*	c #B1B1B1",
"+	c #9A9A9A",
",	c #9D9D9D",
"-	c #9F9F9F",
".	c #ACACAC",
"0	c #B2B2B2",
"1	c #BCBCBC",
"2	c #B0B0B0",
"3	c #BABABA",
"4	c #FBFBFB",
"5	c #D2D2D2",
"6	c #A7A7A7",
"7	c #E5E5E5",
"8	c #ECECEC",
"9	c #E8E8E8",
":	c #E4E4E4",
";	c #B8B8B8",
"<	c #9C9C9C",
"=	c #DBDBDB",
">	c #F5F5F5",
"?	c #B4B4B4",
"@	c #F4F4F4",
"A	c #C0C0C0",
"B	c #AAAAAA",
"C	c #9B9B9B",
"D	c #F8F8F8",
"E	c #ABABAB",
"F	c #A1A1A1",
"G	c #E0E0E0",
"H	c #D0D0D0",
"I	c #D9D9D9",
"J	c #D3D3D3",
"K	c #CDCDCD",
"L	c #CCCCCC",
"M	c #EEEEEE",
"N	c #A4A4A4",
"O	c #D6D6D6",
"    #$%&'&%$#   ",
"   (%)))))))%(  ",
"  (*+)))))))+*( ",
" #%+,-.01%2))+34",
" 5,))67899:;))<=",
" %)))*>?--?@),,A",
" &,))0@BCCBD)),E",
" F<))0DG$HIH))<F",
" &,))0#JKLAF),,E",
" %)))*>.))C,),,A",
" 5,,)EME,,))))<=",
"  %+,NOF)))))+3 ",
"  (*+)))))),+*( ",
"   (%<,))),<%(  ",
"     =AEFEA=    ",
"                "};
