/* XPM */
static const char * tmseparator_xpm[] = {
"16 16 3 1",
" 	c None",
"!	c black",
"#	c #808080",
"                ",
"                ",
"                ",
"                ",
"                ",
"                ",
"                ",
"  #           # ",
"   ###########  ",
"  #           # ",
"                ",
"                ",
"                ",
"                ",
"                ",
"                "};
