/* XPM */
static char * tmsnippet_xpm[] = {
"16 16 85 1",
" 	c None",
"!	c black",
"#	c #E0CCF7",
"$	c #D1B3F3",
"%	c #C39DF0",
"&	c #BE94EF",
"'	c #F1E8FB",
"(	c #D0B3F3",
")	c #BD92EF",
"*	c #CBA8F1",
"+	c #BA8DED",
",	c #BA8EEE",
"-	c #B88AED",
".	c #B98BEE",
"0	c #BC91EF",
"1	c #D1B2F3",
"2	c #BD92EE",
"3	c #BB90EE",
"4	c #CEAFF3",
"5	c #CFB0F3",
"6	c #CCABF2",
"7	c #BC92EE",
"8	c #BA8EED",
"9	c #C7A4F0",
":	c #EEE3FA",
";	c #F6F0FC",
"<	c #F1E8FA",
"=	c #F7F3FC",
">	c #ECE0FA",
"?	c #C39DEF",
"@	c #BC91EE",
"A	c #E7D7F9",
"B	c #BB90ED",
"C	c #E4D2F7",
"D	c #AF7BEA",
"E	c #AD78EA",
"F	c #C198EF",
"G	c #DAC3F6",
"H	c #C49EF0",
"I	c #D5B9F4",
"J	c #C39EF0",
"K	c #BC90EE",
"L	c #DBC5F5",
"M	c #F6F1FC",
"N	c #D2B6F3",
"O	c #CFAFF3",
"P	c #C49DF0",
"Q	c #B484EC",
"R	c #C5A0F1",
"S	c #BF94EE",
"T	c #BB8FEE",
"U	c #C19AEF",
"V	c #E2D0F7",
"W	c #F0E7FB",
"X	c #EBDCF9",
"Y	c #D9C0F5",
"Z	c #BD93EE",
"[	c #BD91EF",
"]	c #BF95EF",
"^	c #B688ED",
"_	c #B483EC",
"`	c #C6A1F1",
"a	c #CDACF2",
"b	c #D8BFF5",
"c	c #F8F5FD",
"d	c #BF96EE",
"e	c #D5BAF4",
"f	c #D1B4F3",
"g	c #B586ED",
"h	c #AB75EA",
"i	c #C5A0F0",
"j	c #F9F6FD",
"k	c #B789ED",
"l	c #BE94EE",
"m	c #F5EFFC",
"n	c #F1E9FB",
"o	c #F7F2FC",
"p	c #DDC8F6",
"q	c #C097EF",
"r	c #C9A6F2",
"s	c #CAA9F2",
"t	c #BE95EF",
"u	c #BD93EF",
"v	c #B98CEE",
"w	c #D0B2F3",
"     #$%&%$#    ",
"   '()))))))('  ",
"  '*+),--.,0+*' ",
"  1,23%456%22+1 ",
" #7289:;<=>?+)@A",
" $)B@C:DEFGH,@@I",
" J)K3LMNOPQ,))@R",
" S))TUVWX'YZK[@]",
" J))0^_`abca-7@R",
" $)Tdefghij4k)@I",
" #7@lLcmnoplK@@A",
"  1+)qr45stKu+1 ",
"  '*+3v--.K)+*' ",
"   'w@))))@Kw'  ",
"     AIR]RIA    ",
"                "};
