/* XPM */
static const char * tmunknown_xpm[] = {
"16 16 22 1",
" 	c None",
"!	c black",
"#	c #F7F7F7",
"$	c #D1D1D1",
"%	c #BBBBBB",
"&	c #A9A9A9",
"'	c #A0A0A0",
"(	c #EAEAEA",
")	c #9E9E9E",
"*	c #B1B1B1",
"+	c #9A9A9A",
",	c #9B9B9B",
"-	c #9D9D9D",
".	c white",
"0	c #BABABA",
"1	c #FBFBFB",
"2	c #D2D2D2",
"3	c #C0C0C0",
"4	c #9C9C9C",
"5	c #DBDBDB",
"6	c #ABABAB",
"7	c #A1A1A1",
"    #$%&'&%$#   ",
"   (%)))))))%(  ",
"  (*+)),,,)-+*( ",
" #%+-),...,))+01",
" 2-)),.3,3.,))45",
" %))),,,),.,)--3",
" &-))))),3.,))-6",
" 74)))),3.,)-)47",
" &-)))),.3,4)--6",
" %))))),.,)))--3",
" 2--))),,,))))45",
"  %+-))'.')))+0 ",
"  (*+)),,,)-+*( ",
"   (%4-)))-4%(  ",
"     5367635    ",
"                "};
