/* XPM */
static char * vtree_draft_selected_xpm[] = {
"10 10 3 1",
" 	c None",
"!	c black",
"#	c #0000FF",
"   !!!    ",
" !!###!!  ",
" !#####!  ",
"!#######! ",
"!#######! ",
"!#######! ",
" !#####!  ",
" !!###!!  ",
"   !!!    ",
"          "};
