/* XPM */
static char * vtree_overlay_mirrored_xpm[] = {
"10 10 3 1",
" 	c None",
"!	c black",
"#	c #000080",
"          ",
"          ",
"          ",
"          ",
"          ",
"     !!!! ",
"     !###!",
"     !###!",
"     !###!",
"     !###!"};
