/* XPM */
static const char * vtree_overlay_unread_xpm[] = {
"10 10 3 1",
" 	c None",
"!	c black",
"#	c #FF0000",
"          ",
" #######  ",
" #######  ",
" #######  ",
" #######  ",
" #######  ",
" #######  ",
" #######  ",
"          ",
"          "};
