/* XPM */
static char * vtree_doc_xpm[] = {
"10 10 3 1",
" 	c None",
"!	c black",
"#	c white",
"!!!!!!!!! ",
"!#######! ",
"!#######! ",
"!#######! ",
"!#######! ",
"!#######! ",
"!#######! ",
"!#######! ",
"!!!!!!!!! ",
"          "};
