/* XPM */ 
static const char * commit_xpm[] = {
"32 32 233 2",
"  	c None",
"! 	c black",
"# 	c #D6D7DD",
"$ 	c #CCCDD4",
"% 	c #CCCED5",
"& 	c #A2A3AA",
"' 	c #B5AC9E",
"( 	c #B8B9C4",
") 	c #857963",
"* 	c #A8A8B0",
"+ 	c #93959F",
", 	c #B6995E",
"- 	c #C9A969",
". 	c #CAAA6A",
"0 	c #B9A47F",
"1 	c #9396A5",
"2 	c #8F919D",
"3 	c #8F93A1",
"4 	c #898991",
"5 	c #C7A869",
"6 	c #BD9F62",
"7 	c #C4A76D",
"8 	c #C5AC7C",
"9 	c #C5AD7D",
": 	c #C6AE7E",
"; 	c #C6AE7F",
"< 	c #B3A386",
"= 	c #98979D",
"> 	c #989BA7",
"? 	c #9EA0AC",
"@ 	c #A4A6B1",
"A 	c #AAACB6",
"B 	c #AFADAC",
"C 	c #B7A580",
"D 	c #C8B07F",
"E 	c #C8B07E",
"F 	c #C8AF7E",
"G 	c #C4A975",
"H 	c #927E55",
"I 	c #AC9056",
"J 	c #C9B58E",
"K 	c #F0F0F0",
"L 	c #EFEFEF",
"M 	c #EEEEEE",
"N 	c #EDEDED",
"O 	c #ECECEC",
"P 	c #EAEAEA",
"Q 	c #E8E8E8",
"R 	c #E9E9E9",
"S 	c #EBEBEB",
"T 	c #D9D3C6",
"U 	c #8E784C",
"V 	c #AB8E55",
"W 	c #CAB690",
"X 	c #F0EEEC",
"Y 	c #F2E8DC",
"Z 	c #F3EAE1",
"[ 	c #F3EAE0",
"] 	c #F4EBE1",
"^ 	c #EFE5DA",
"_ 	c #DBD4C8",
"` 	c #8D764B",
"a 	c #A98D53",
"b 	c #C9B691",
"c 	c #F1E8DE",
"d 	c #F8F8F8",
"e 	c #F9F9F9",
"f 	c #FBFBFB",
"g 	c #FCFCFC",
"h 	c #F6EDE3",
"i 	c #FF0000",
"j 	c #DBD5C9",
"k 	c #8C764A",
"l 	c #A98C53",
"m 	c #CAB793",
"n 	c #F0E7DD",
"o 	c #FAFAFA",
"p 	c #DBD6CA",
"q 	c #8B7449",
"r 	c #A88B51",
"s 	c #CAB895",
"t 	c #F1E0CD",
"u 	c #F2E0CD",
"v 	c #F3E1CE",
"w 	c #F4E2CE",
"x 	c #EFE1D3",
"y 	c #DBD6CC",
"z 	c #8B7448",
"{ 	c #A78A50",
"| 	c #CAB996",
"} 	c #F0E9E2",
"~ 	c #FBCFCF",
" !	c #FBE7E7",
"!!	c #FCE8E8",
"#!	c #DBD7CD",
"$!	c #897347",
"%!	c #A5894F",
"&!	c #CBB998",
"'!	c #FE9A9A",
"(!	c #DCD7CE",
")!	c #897246",
"*!	c #A5884E",
"+!	c #CBBA98",
",!	c #F0EAE3",
"-!	c #F4E9DD",
".!	c #DCD8CF",
"0!	c #887145",
"1!	c #A3874D",
"2!	c #CBBB9A",
"3!	c #F1E1CF",
"4!	c #EFE3D5",
"5!	c #DCD9D1",
"6!	c #877044",
"7!	c #A3864B",
"8!	c #CBBA9A",
"9!	c #F1F1F1",
":!	c #DDD9D2",
";!	c #867043",
"<!	c #A2854A",
"=!	c #DEDAD4",
">!	c #866F42",
"?!	c #A18449",
"@!	c #CABA9A",
"A!	c #F2F0EE",
"B!	c #F2E1CD",
"C!	c #F3E1CD",
"D!	c #F5E3CF",
"E!	c #F0E3D4",
"F!	c #DFDCD6",
"G!	c #856E41",
"H!	c #A08348",
"I!	c #C9B999",
"J!	c #F1EBE4",
"K!	c #F9F5F1",
"L!	c #F6EBE0",
"M!	c #F2F2F2",
"N!	c #E0DED9",
"O!	c #846D40",
"P!	c #9F8247",
"Q!	c #C9B899",
"R!	c #F2E9E0",
"S!	c #FDFDFD",
"T!	c #F7EEE4",
"U!	c #E2E0DC",
"V!	c #836C40",
"W!	c #9E8146",
"X!	c #C8B799",
"Y!	c #F1EBE6",
"Z!	c #F9F4EF",
"[!	c #F5EADE",
"]!	c #F3F3F3",
"^!	c #E3E1DE",
"_!	c #836B3E",
"`!	c #9D8045",
"a!	c #C6B698",
"b!	c #F0EEEE",
"c!	c #F2E2D1",
"d!	c #F4E2CF",
"e!	c #F2E6D8",
"f!	c #F4F4F4",
"g!	c #E4E3E0",
"h!	c #826B3E",
"i!	c #9C7E44",
"j!	c #C5B598",
"k!	c #EDE4DC",
"l!	c #F8F9F9",
"m!	c #FAFAFB",
"n!	c #E5E4E2",
"o!	c #81693D",
"p!	c #9C7E42",
"q!	c #C3B394",
"r!	c #ECE3DA",
"s!	c #F7F7F8",
"t!	c #F5F5F5",
"u!	c #E5E5E3",
"v!	c #81693B",
"w!	c #9B7D42",
"x!	c #C1B091",
"y!	c #F4F2F0",
"z!	c #F1E6DB",
"{!	c #F5ECE3",
"|!	c #F6EEE4",
"}!	c #F4EBE0",
"~!	c #E6E6E5",
" #	c #7F673B",
"!#	c #B4A17C",
"##	c #F7F7F7",
"$#	c #ECECED",
"%#	c #EDEDEF",
"&#	c #F1F2F4",
"'#	c #F3F3F5",
"(#	c #F4F4F5",
")#	c #F6F6F6",
"*#	c #E7E7E6",
"+#	c #A18653",
",#	c #EFEEEE",
"-#	c #ECEDEF",
".#	c #F1F1F4",
"0#	c #E8E8E7",
"1#	c #7F673A",
"2#	c #A88747",
"3#	c #AD9E7F",
"4#	c #E6E5E4",
"5#	c #F5F5F6",
"6#	c #ECECEE",
"7#	c #F4F4F6",
"8#	c #7B6439",
"9#	c #AA8849",
":#	c #AD8B49",
";#	c #A6874B",
"<#	c #AD9361",
"=#	c #AE9465",
">#	c #AF9668",
"?#	c #AF9769",
"@#	c #AF986A",
"A#	c #B0986C",
"B#	c #B0996E",
"C#	c #B19A6F",
"D#	c #B29B71",
"E#	c #B29C73",
"F#	c #B39D74",
"G#	c #B39E76",
"H#	c #B49F78",
"I#	c #B5A079",
"J#	c #B5A17A",
"K#	c #B09D78",
"L#	c #4D4029",
"M#	c #645A48",
"N#	c #766036",
"O#	c #876D3B",
"P#	c #7D6437",
"Q#	c #423823",
"R#	c #2C2C2C",
"                                                                ",
"                            # $ % &                             ",
"                          ' ( ) * +                             ",
"            , - . . . . . 0 1 2 3 4 5 . . . . . 6               ",
"            7 8 9 : : ; < = > ? @ A B C D D E F G H             ",
"          I J K L M N O P Q Q R R S S S O N M L T U             ",
"          V W X Y Z [ ] ^ O P P P P S O O M L K _ `             ",
"          a b c d e f g h S P i R P P S O N M K j k             ",
"          l m n e o f g h P i i i Q P S O N M L p q             ",
"          r s X t u v w x i i Q Q Q P P O N M L y z             ",
"          { | } i ~  !!!i i P Q Q Q P S O N M L #!$!            ",
"          %!&!i i i '!i i S P R R R P S O N M K (!)!            ",
"          *!+!,!i i i i -!O P P P P S O O M L K .!0!            ",
"          1!2!X 3!i i w 4!O O S S S O O N M L K 5!6!            ",
"          7!8!c e o f g h N O O O O O N M L K 9!:!;!            ",
"          <!8!c e o f g h M N N N N N M L L K 9!=!>!            ",
"          ?!@!A!B!C!v D!E!L M M M M M L L K 9!9!F!G!            ",
"          H!I!J!K!o f g L!L L L L L L L K 9!9!M!N!O!            ",
"          P!Q!R!o o f S!T!9!K K K K K 9!9!9!M!M!U!V!            ",
"          W!X!Y!Z!f g S![!9!9!9!9!9!9!9!9!M!M!]!^!_!            ",
"          `!a!b!c!w d!d!e!M!M!9!9!9!M!M!M!]!f!f!g!h!            ",
"          i!j!k!l!m!g S!T!]!M!M!M!M!M!]!]!f!f!f!n!o!            ",
"          p!q!r!s!m!g S!T!f!f!]!]!]!f!f!f!f!t!t!u!v!            ",
"          w!x!y!z!R!{!|!}!f!f!f!f!f!f!f!t!t!t!t!~! #            ",
"          w!!###t!$#%#&#'#(#t!t!t!t!t!t!t!t!)#)#*# #            ",
"          w!+#,###t!$#-#.#(#t!t!t!t!t!t!)#)#)###0#1#            ",
"            2#3#4#]!5#6#6#.#7#)#)#)#)#)#)#######R 8#            ",
"            9#:#;#<#=#>#?#@#A#B#C#D#E#F#G#H#I#J#K#L#            ",
"            M#N#O#O#O#O#O#O#O#O#O#O#O#O#O#O#O#P#Q#R#            ",
"                                                                ",
"                                                                ",
"                                                                "};