/* XPM */ 
static const char * diff_xpm[] = {
"16 16 95 2",
"  	c None",
"! 	c black",
"# 	c #7DA4D8",
"$ 	c #ADC6E6",
"% 	c #CEDCF0",
"& 	c #C7D8ED",
"' 	c #C6D8EF",
"( 	c #BACBEB",
") 	c #909DB9",
"* 	c #716E6A",
"+ 	c #79A2D7",
", 	c #C8D9EF",
"- 	c #FCFDFF",
". 	c #EEF5FC",
"0 	c #F2F7FE",
"1 	c #BFD9F4",
"2 	c #51A5F0",
"3 	c #5982A8",
"4 	c #C7D8EF",
"5 	c #F8FBFF",
"6 	c #E9F1FC",
"7 	c #EAF2FC",
"8 	c #D1E7FD",
"9 	c #9CD0FD",
": 	c #96B5E8",
"; 	c #70686B",
"< 	c #78A1D6",
"= 	c #C4D7EE",
"> 	c #F8FBFE",
"? 	c #E9F1FB",
"@ 	c #E1EDFB",
"A 	c #E0ECFC",
"B 	c #D6E1F2",
"C 	c #D7ECFF",
"D 	c #8C97AD",
"E 	c #79A3D7",
"F 	c #C0D4EF",
"G 	c #F1F7FF",
"H 	c #E7F1FC",
"I 	c #E2EEFB",
"J 	c #DDEBFA",
"K 	c #D1E4FA",
"L 	c #CFE9FD",
"M 	c #8A92A4",
"N 	c #7A9FD4",
"O 	c #BCD1ED",
"P 	c #E8F3FE",
"Q 	c #7791C8",
"R 	c #B5C8E7",
"S 	c #DDECFC",
"T 	c #D5E6FA",
"U 	c #7288BE",
"V 	c #ACC0E3",
"W 	c #D2E5FC",
"X 	c #CEE1F9",
"Y 	c #6E81B5",
"Z 	c #ADC3E5",
"[ 	c #D4ECFF",
"] 	c #C7E1FE",
"^ 	c #6A76AE",
"_ 	c #98A9D5",
"` 	c #B6CAF0",
"a 	c #ACC4EA",
"b 	c #65656D",
"c 	c #65666E",
"d 	c #66676E",
"e 	c #E1EEFC",
"f 	c #D9E8FA",
"g 	c #CBE0F8",
"h 	c #D2E9FF",
"i 	c #8A93A5",
"j 	c #D7E6F9",
"k 	c #DAE8FB",
"l 	c #CDE1F6",
"m 	c #C7E3FF",
"n 	c #8992A6",
"o 	c #CDE0F8",
"p 	c #CDE0F7",
"q 	c #BCD5F1",
"r 	c #BEDDFD",
"s 	c #868FA6",
"t 	c #C6E3FF",
"u 	c #BFDDFE",
"v 	c #BADAFA",
"w 	c #C4E8FF",
"x 	c #8491A5",
"y 	c #A9BEE4",
"z 	c #A7B8E4",
"{ 	c #A7BAE2",
"| 	c #A6BBE9",
"} 	c #7A8197",
"~ 	c #65646B",
" !	c #66646A",
"!!	c #65626A",
"#!	c #656467",
"  # $ % & ' ( ) *               ",
"  + , - . 0 1 2 3               ",
"  + 4 5 6 7 8 9 : ;             ",
"  < = > ? @ A B C D             ",
"  E F G H I J K L M             ",
"  N O P @ @ # $ % & ' ( ) *     ",
"  Q R S T T + , - . 0 1 2 3     ",
"  U V W X X + 4 5 6 7 8 9 : ;   ",
"  Y Z [ ] ] < = > ? @ A B C D   ",
"  ^ _ ` a a E F G H I J K L M   ",
"    b c d d N O P @ e f g h i   ",
"            Q R S T j k l m n   ",
"            U V W X o p q r s   ",
"            Y Z [ ] t u v w x   ",
"            ^ _ ` a y z { | }   ",
"              b c d ~  ! !!!#!  "};