/* XPM */
static const char * document_xpm[] = {
"16 16 45 1",
" 	c None",
"!	c black",
"#	c #83A9DA",
"$	c #88AADB",
"%	c #83A1D4",
"&	c #666666",
"'	c #FAFBFD",
"(	c #F3F8FE",
")	c #EBF3FD",
"*	c #7AB0E8",
"+	c #F0F6FE",
",	c #E5F0FD",
"-	c #43A6F7",
".	c #4092E0",
"0	c #DAE9FC",
"1	c #ABB1F8",
"2	c #7485B8",
"3	c #E1EEFC",
"4	c #C3D3EA",
"5	c #D2E5FB",
"6	c #B6C9F1",
"7	c #CAE0FB",
"8	c #CEE2F1",
"9	c #CDE0F7",
":	c #C8DEEF",
";	c #809ACD",
"<	c #BCD9F9",
"=	c #7A92C5",
">	c #B8D3EF",
"?	c #ADC2F0",
"@	c #798EC1",
"A	c #B4D1F4",
"B	c #B5D3F9",
"C	c #C3DCFA",
"D	c #C1D9F4",
"E	c #A3BCE6",
"F	c #BBD2FA",
"G	c #B9D5F7",
"H	c #ADD0FA",
"I	c #6D74A7",
"J	c #98A7D2",
"K	c #93A4C9",
"L	c #929AC4",
"M	c #8B91B6",
"N	c #8489B4",
"  ######$%#&    ",
"  #'''(())#*&   ",
"  #'((+)),--.&  ",
"  #((+)+))0012& ",
"  #((+),300456& ",
"  #)++),300756& ",
"  #)))),300786& ",
"  #,,,,,300796& ",
"  %333333077:6& ",
"  ;007070707<6& ",
"  =09090900><?& ",
"  @5777777AB<?& ",
"  2777CC<<DDBE& ",
"  277CC<<FBGHE& ",
"  IJJJJKLLLLMN& ",
"   &&&&&&&&&&&& "};
