/* XPM */ 
static const char * new_xpm[] = {
"32 32 91 1",
" 	c None",
"!	c black",
"#	c #DBDBDB",
"$	c #E1E1E1",
"%	c #E0E0E0",
"&	c #8B8B8B",
"'	c #ECECEC",
"(	c #F1F1F1",
")	c #F0F0F0",
"*	c #EEEEEE",
"+	c #EDEDED",
",	c #EBEBEB",
"-	c #C9C9C9",
".	c #EFEFEF",
"0	c #EAEAEA",
"1	c #E9E9E9",
"2	c #E8E8E8",
"3	c #F2F2F2",
"4	c #F3F3F3",
"5	c #40B600",
"6	c #42B600",
"7	c #5DBE10",
"8	c #4FA808",
"9	c #5BBD0E",
":	c #5DBB17",
";	c #C2F099",
"<	c white",
"=	c #C2F199",
">	c #9BD769",
"?	c #C0F68A",
"@	c #A4E167",
"A	c #EDF8E3",
"B	c #A5E06A",
"C	c #BBEA88",
"D	c #91D257",
"E	c #F4F4F4",
"F	c #A1E45B",
"G	c #9ED561",
"H	c #8EC551",
"I	c #8FC652",
"J	c #93C858",
"K	c #97CF5C",
"L	c #F1F8E8",
"M	c #F5F9F0",
"N	c #F8FBF4",
"O	c #EFF7E7",
"P	c #F5F5F5",
"Q	c #A6E744",
"R	c #AEEF3F",
"S	c #B8F845",
"T	c #BEFC52",
"U	c #77C823",
"V	c #F6F6F6",
"W	c #409202",
"X	c #B2F649",
"Y	c #B1F549",
"Z	c #79CD22",
"[	c #3F9102",
"]	c #F4F4F5",
"^	c #F2F2F4",
"_	c #66C015",
"`	c #67C016",
"a	c #50A809",
"b	c #F7F7F7",
"c	c #F3F3F5",
"d	c #EFF0F3",
"e	c #ECECEE",
"f	c #EDEDEE",
"g	c #F4F4F6",
"h	c #F3F4F5",
"i	c #F0F0F3",
"j	c #EBECEE",
"k	c #ECEDED",
"l	c #F8F8F8",
"m	c #F5F5F6",
"n	c #F2F3F5",
"o	c #EFF0F2",
"p	c #EBECED",
"q	c #F5F5F7",
"r	c #F2F2F5",
"s	c #EFEFF2",
"t	c #EBEBED",
"u	c #F6F6F7",
"v	c #B8B8B8",
"w	c #E8E8E9",
"x	c #E7E7E9",
"y	c #E5E5E7",
"z	c #E2E2E5",
"{	c #DEDEDF",
"|	c #E6E6E7",
"}	c #E6E6E6",
"                                ",
"    #$$$$$$$$%%$%%$$$%&         ",
"    '())**+''',,,'''**-&        ",
"    '().**+',,000,''+*-$&       ",
"    ')).*+'',00000,'+*-*$&      ",
"    ')).*+',011110,''*-.**&     ",
"    +))**+',0122110,'+-')*$&    ",
"    +))**+',0122210,'+------&   ",
"    *))**+',0122110,'+*.))(*    ",
"    *)).*+',001110,''**.)((.    ",
"    *)).*+'',00000,'+**.)((.    ",
"    .().**+',,,,,,''+**))(3.    ",
"    )())***''',,'''+**.))(3)    ",
"    )()).**+''''''+***))((3)    ",
"    ((()).***+++++***.))(34(    ",
"    (3(()).*********.))((34(    ",
"    (43()))..*****..))((3 56    ",
"    (43(()))))...))))( 3788889  ",
"    3443((()))))))))((3:8;<<=>8 ",
"    344433((())))((((3 8?@<ABCD ",
"    4E44443((((((((3348FGH<<IJK8",
"    EEE4444433333334448<<LMNO<<8",
"    EPEEE44444444444448<<<<<<<<8",
"    PPPEEEE444444444EE 8QR<<STU ",
"    VVPPEEEEEEEEEEEEEEEW8X<<YZ[ ",
"    VVVVPPEEEEEEEEEEE] ^ 8_`a   ",
"    bbbVVVPPPPPPPPPP]c^def55    ",
"    bbbbVVVVVPPPPPVgh^ijkVb1    ",
"    llbbbbbVVVVVVVmgnop+Vll4    ",
"    lllbbbbbbbbbbqgrstfull.4    ",
"   v(..**+',,,01wxyz{{|}xxxx    ",
"                                "};