/* XPM */ 
static char * open_xpm[] = {
"32 32 319 2",
"  	c None",
"! 	c black",
"# 	c #CBBB93",
"$ 	c #C5B692",
"% 	c #D2C097",
"& 	c #DBC79A",
"' 	c #DCC798",
"( 	c #E4CF9E",
") 	c #E2CC9A",
"* 	c #EED7A3",
"+ 	c #F3DCA6",
", 	c #F5DCA4",
"- 	c #F6DCA1",
". 	c #F1D79C",
"0 	c #E7D19E",
"1 	c #EDD7A3",
"2 	c #C5B48C",
"3 	c #D6C295",
"4 	c #DFC999",
"5 	c #E0CA98",
"6 	c #EFD8A4",
"7 	c #F4DBA4",
"8 	c #F6DB9F",
"9 	c #E9D098",
": 	c #E8D29F",
"; 	c #ECD49D",
"< 	c #A4936B",
"= 	c #F0D7A0",
"> 	c #F4D99C",
"? 	c #F4D99D",
"@ 	c #F5D99D",
"A 	c #F5DA9E",
"B 	c #ECD4A0",
"C 	c #E9D19A",
"D 	c #B09E75",
"E 	c #F1D699",
"F 	c #F1D69A",
"G 	c #F2D69A",
"H 	c #F2D79A",
"I 	c #F3D79B",
"J 	c #E0C996",
"K 	c #E7CE97",
"L 	c #B09F76",
"M 	c #EFD396",
"N 	c #EFD397",
"O 	c #EFD497",
"P 	c #F0D497",
"Q 	c #D8BF88",
"R 	c #AD996D",
"S 	c #A49470",
"T 	c #F3D89C",
"U 	c #E5CB93",
"V 	c #AE9C74",
"W 	c #ECD093",
"X 	c #EDD094",
"Y 	c #EDD194",
"Z 	c #CDB580",
"[ 	c #A38F65",
"] 	c #907F5A",
"^ 	c #A3936E",
"_ 	c #E3C890",
"` 	c #AC9B74",
"a 	c #E9CD90",
"b 	c #EACD90",
"c 	c #EACE90",
"d 	c #E6CA8E",
"e 	c #C2AB78",
"f 	c #99875F",
"g 	c #8E7D58",
"h 	c #A2916D",
"i 	c #E0C68E",
"j 	c #AB9B74",
"k 	c #E7CA8C",
"l 	c #E7CA8D",
"m 	c #E7CB8D",
"n 	c #C9B07A",
"o 	c #8C7B56",
"p 	c #8D7B56",
"q 	c #A1906C",
"r 	c #DEC48C",
"s 	c #AD9D77",
"t 	c #E4C789",
"u 	c #E4C78A",
"v 	c #E5C88A",
"w 	c #C6AD78",
"x 	c #8B7954",
"y 	c #A08F6B",
"z 	c #DDC28A",
"{ 	c #E1C486",
"| 	c #E2C486",
"} 	c #E2C586",
"~ 	c #E2C587",
" !	c #C4AB75",
"!!	c #897752",
"#!	c #897852",
"$!	c #9F8E69",
"%!	c #DBC088",
"&!	c #A89770",
"'!	c #DDC084",
"(!	c #DFC183",
")!	c #DFC283",
"*!	c #DFC284",
"+!	c #E0C284",
",!	c #C2A872",
"-!	c #887550",
".!	c #887650",
"0!	c #9E8D68",
"1!	c #D9BE86",
"2!	c #A29169",
"3!	c #D9BD82",
"4!	c #DCBE80",
"5!	c #DDBF80",
"6!	c #BFA66F",
"7!	c #86744E",
"8!	c #9D8C67",
"9!	c #E1C385",
":!	c #D7BC83",
";!	c #9A8960",
"<!	c #D7BC82",
"=!	c #DABC7D",
">!	c #DABC7E",
"?!	c #BDA36D",
"@!	c #84724C",
"A!	c #85724C",
"B!	c #9C8B66",
"C!	c #DEC082",
"D!	c #D6BA81",
"E!	c #938157",
"F!	c #D6BB82",
"G!	c #D7B97A",
"H!	c #D8B97A",
"I!	c #BBA06A",
"J!	c #83704A",
"K!	c #83714A",
"L!	c #9B8A64",
"M!	c #F1D598",
"N!	c #DBBD7E",
"O!	c #D3B77E",
"P!	c #D4B980",
"Q!	c #D5B676",
"R!	c #D5B677",
"S!	c #B99E67",
"T!	c #816E48",
"U!	c #826F48",
"V!	c #9A8963",
"W!	c #EED296",
"X!	c #D8BA7A",
"Y!	c #D1B57C",
"Z!	c #D2B77E",
"[!	c #D2B373",
"]!	c #D2B374",
"^!	c #D3B474",
"_!	c #B79C64",
"`!	c #806D46",
"a!	c #998862",
"b!	c #ECCF92",
"c!	c #CFB37A",
"d!	c #D0B57C",
"e!	c #CFB070",
"f!	c #D0B070",
"g!	c #D0B071",
"h!	c #B49962",
"i!	c #7E6B44",
"j!	c #988661",
"k!	c #E9CC8F",
"l!	c #CDB077",
"m!	c #7B6B46",
"n!	c #CEB379",
"o!	c #CDAD6D",
"p!	c #CDAE6E",
"q!	c #B2975F",
"r!	c #7C6942",
"s!	c #7D6942",
"t!	c #7D6A42",
"u!	c #7D6A43",
"v!	c #978660",
"w!	c #E6C98B",
"x!	c #CBAE75",
"y!	c #B19E74",
"z!	c #CAAA6B",
"{!	c #CAAA6A",
"|!	c #CBAA6A",
"}!	c #CBAB6A",
"~!	c #B0945C",
" #	c #7B6740",
"!#	c #7B6841",
"##	c #837049",
"$#	c #E9D29C",
"%#	c #E3C587",
"&#	c #CCAC6C",
"'#	c #C9AD73",
"(#	c #8D8060",
")#	c #C8A868",
"*#	c #C7A766",
"+#	c #C8A766",
",#	c #C8A767",
"-#	c #C8A867",
".#	c #AE9159",
"0#	c #79663E",
"1#	c #7A663E",
"2#	c #7A663F",
"3#	c #C8B283",
"4#	c #C9A968",
"5#	c #C8AB72",
"6#	c #8A7D5F",
"7#	c #E8DCC4",
"8#	c #D5BD8E",
"9#	c #C5A464",
":#	c #C5A564",
";#	c #AB8F57",
"<#	c #78643C",
"=#	c #78643D",
">#	c #C5AF80",
"?#	c #C6A665",
"@#	c #C7AA70",
"A#	c #877A5C",
"B#	c #E4DCCD",
"C#	c #D3BC8D",
"D#	c #C2A160",
"E#	c #C2A260",
"F#	c #C3A260",
"G#	c #C3A261",
"H#	c #A98C54",
"I#	c #76623A",
"J#	c #76623B",
"K#	c #C2AD7D",
"L#	c #DABB7D",
"M#	c #C6A96F",
"N#	c #83785A",
"O#	c #E4DCCC",
"P#	c #D1B98A",
"Q#	c #C09E5D",
"R#	c #C09F5D",
"S#	c #C09F5E",
"T#	c #BC9C5C",
"U#	c #8A7243",
"V#	c #746039",
"W#	c #756039",
"X#	c #756139",
"Y#	c #C0AA7B",
"Z#	c #D7B879",
"[#	c #C5A86E",
"]#	c #807558",
"^#	c #E3DBCB",
"_#	c #CFB787",
"`#	c #BD9C5A",
"a#	c #BE9C5A",
"b#	c #B39355",
"c#	c #735F36",
"d#	c #735F37",
"e#	c #BDA778",
"f#	c #D4B575",
"g#	c #C4A86E",
"h#	c #7D7256",
"i#	c #E2DACB",
"j#	c #CDB485",
"k#	c #BB9956",
"l#	c #BB9957",
"m#	c #BB9958",
"n#	c #B49454",
"o#	c #725D35",
"p#	c #BAA475",
"q#	c #D1B272",
"r#	c #BA9856",
"s#	c #C4A76E",
"t#	c #7B6F54",
"u#	c #E2DACA",
"v#	c #CBB282",
"w#	c #B89654",
"x#	c #B99654",
"y#	c #B59453",
"z#	c #705B33",
"{#	c #B8A273",
"|#	c #CEAE6E",
"}#	c #B89653",
"~#	c #C4A871",
" $	c #786D52",
"!$	c #DDD8CE",
"#$	c #C6AE80",
"$$	c #B59350",
"%$	c #B69350",
"&$	c #B69351",
"'$	c #B69451",
"($	c #6F5A31",
")$	c #6F5931",
"*$	c #74613D",
"+$	c #706041",
",$	c #63573E",
"-$	c #514939",
".$	c #B8A479",
"0$	c #B79654",
"1$	c #756B51",
"2$	c #ABBDD8",
"3$	c #B7A581",
"4$	c #B3904D",
"5$	c #B3904E",
"6$	c #B59351",
"7$	c #C0A368",
"8$	c #C6AB73",
"9$	c #887958",
":$	c #4D473A",
";$	c #191815",
"<$	c #B29F74",
"=$	c #C6AB74",
">$	c #6A614A",
"?$	c #CCB78B",
"@$	c #B59454",
"A$	c #B18E4B",
"B$	c #B69555",
"C$	c #C1A36A",
"D$	c #C6AB76",
"E$	c #D1BA8A",
"F$	c #B09C71",
"G$	c #C8A96A",
"H$	c #C2AB7B",
"I$	c #C9AE7A",
"J$	c #D7C295",
"K$	c #B19D71",
"L$	c #D5BB87",
"                                                      #         ",
"                                $ % & ' ( ) * + , - . 0 1       ",
"                    2 3 4 5 6 7 8 8 8 8 8 8 8 8 8 9 : 8 ;       ",
"                < = > > > ? ? ? ? @ @ A A A A A 9 B 8 A C       ",
"                D E E F G G G G G G G H H H H I J 8 8 ? K       ",
"                L M M M M M M M N O O P P P Q R S 8 8 T U       ",
"                V W W W W W W X X Y Y W Z [ ] ] ^ 8 8 E _       ",
"                ` a a b b b b c c d e f g g g g h 8 8 N i       ",
"                j k k k l l l m m n o o p p p p q 8 8 Y r       ",
"                s t t u u v v v v w x x x x x x y 8 8 b z       ",
"                s { | | | } } ~ ~  !!!#!#!#!#!#!$!8 8 l %!      ",
"                &!'!(!(!)!)!*!+!+!,!-!.!.!.!.!.!0!8 A t 1!      ",
"                2!3!4!5!5!5!5!5!5!6!7!7!7!7!7!7!8!8 > 9!:!      ",
"                ;!<!=!=!=!=!=!=!>!?!@!@!@!A!A!A!B!8 H C!D!      ",
"                E!F!G!G!G!G!H!H!H!I!J!J!J!J!K!K!L!8 M!N!O!      ",
"                  P!Q!Q!Q!R!R!R!R!S!T!T!T!U!U!U!V!8 W!X!Y!      ",
"                  Z![![!]!]!]!]!^!_!`!`!`!`!`!`!a!8 b!R!c!      ",
"                  d!e!e!f!f!f!f!g!h!i!i!i!i!i!i!j!8 k![!l!      ",
"                m!n!o!o!o!o!o!p!p!q!r!r!r!s!t!u!v!A w!e!x!      ",
"                y!z!{!{!{!{!|!}!}!~! # # #!#!#!###$#%#&#'#      ",
"              (#)#*#+#+#,#-#-#-#-#.#0#0#0#1#1#2#2#3#+!4#5#      ",
"              6#7#8#9#9#9#:#:#:#:#;#<#=#=#=#=#=#=#>#5!?#@#      ",
"              A#B#C#D#E#F#F#F#G#G#H#I#I#J#J#J#J#J#K#L#G#M#      ",
"              N#O#P#Q#R#R#R#S#S#S#T#U#V#V#V#W#W#X#Y#Z#S#[#      ",
"            ! ]#^#_#`#`#`#`#`#a#a#a#b#c#d#d#d#d#d#e#f#`#g#      ",
"          ! ! h#i#j#k#l#l#l#l#l#l#m#n#o#o#o#o#o#o#p#q#r#s#      ",
"        ! ! ! t#u#v#w#w#w#w#w#w#w#x#y#z#z#z#z#z#z#{#|#}#~#      ",
"        ! ! !  $!$#$$$$$$$%$&$&$'$'$'$($)$*$+$,$-$.$}!0$        ",
"          ! ! 1$2$3$4$4$4$5$5$5$6$7$8$9$:$;$! ! ! <$-#=$        ",
"            ! >$?$@$A$A$B$C$D$E$              ! ! F$G$          ",
"                  H$I$J$                          K$L$          ",
"                                                                "};