/* XPM */ 
static const char * retrieve_xpm[] = {
"32 32 396 2",
"  	c None",
"! 	c black",
"# 	c #312B20",
"$ 	c #564D3B",
"% 	c #574E3B",
"& 	c #574F3B",
"' 	c #524A37",
"( 	c #3E3829",
") 	c #AB9B75",
"* 	c #B8A57A",
"+ 	c #B6A379",
", 	c #B6A479",
"- 	c #BDAA7F",
". 	c #948665",
"0 	c #312C20",
"1 	c #D1BE92",
"2 	c #C6B285",
"3 	c #BFAC7F",
"4 	c #BFAB7F",
"5 	c #BEAB7F",
"6 	c #BEAB7E",
"7 	c #BEAA7E",
"8 	c #BDAA7E",
"9 	c #BDA97D",
": 	c #BCA97D",
"; 	c #BCA87D",
"< 	c #BBA87C",
"= 	c #CFBB8D",
"> 	c #B8A67F",
"? 	c #3D3728",
"@ 	c #9C8C67",
"A 	c #BBA87B",
"B 	c #BBA77C",
"C 	c #BBA77B",
"D 	c #BAA77B",
"E 	c #BAA67B",
"F 	c #91815D",
"G 	c #9F8E66",
"H 	c #786B4D",
"I 	c #877958",
"J 	c #877858",
"K 	c #867858",
"L 	c #857756",
"M 	c #837655",
"N 	c #827454",
"O 	c #817353",
"P 	c #807252",
"Q 	c #7F7151",
"R 	c #7E7051",
"S 	c #786A4C",
"T 	c #A59268",
"U 	c #8E7E59",
"V 	c #8D7D5A",
"W 	c #978660",
"X 	c #958561",
"Y 	c #B29F73",
"Z 	c #B19E73",
"[ 	c #B19E72",
"] 	c #B09C72",
"^ 	c #AE9B71",
"_ 	c #AC9A6F",
"` 	c #AB986E",
"a 	c #A9966C",
"b 	c #A7946B",
"c 	c #A6936A",
"d 	c #A49269",
"e 	c #A29169",
"f 	c #7B6D4D",
"g 	c #A39066",
"h 	c #8A7A56",
"i 	c #887956",
"j 	c #96845E",
"k 	c #93835F",
"l 	c #B09C71",
"m 	c #A49167",
"n 	c #A39167",
"o 	c #A29066",
"p 	c #A28F65",
"q 	c #A18F65",
"r 	c #A18E65",
"s 	c #A18E64",
"t 	c #9D8B63",
"u 	c #7A6B4C",
"v 	c #A08E64",
"w 	c #857553",
"x 	c #847553",
"y 	c #94835D",
"z 	c #92825E",
"{ 	c #AE9B70",
"| 	c #A08D64",
"} 	c #A08D63",
"~ 	c #9F8D63",
" !	c #9F8C63",
"!!	c #9F8C62",
"#!	c #988760",
"$!	c #786A4A",
"%!	c #9E8B62",
"&!	c #817250",
"'!	c #817251",
"(!	c #92815B",
")!	c #8F7F5C",
"*!	c #AB976D",
"+!	c #9A8963",
",!	c #7D7051",
"-!	c #796C4F",
".!	c #76684C",
"0!	c #706449",
"1!	c #6F6348",
"2!	c #98865F",
"3!	c #9D8A61",
"4!	c #9D8A60",
"5!	c #95845D",
"6!	c #766849",
"7!	c #9C8960",
"8!	c #7D6F4E",
"9!	c #7E704F",
":!	c #907F59",
";!	c #8B7B58",
"<!	c #9C8961",
"=!	c #97855D",
">!	c #9B8960",
"?!	c #95835C",
"@!	c #93815B",
"A!	c #92815A",
"B!	c #92805A",
"C!	c #96835C",
"D!	c #9B885F",
"E!	c #9A885E",
"F!	c #93815A",
"G!	c #756648",
"H!	c #9A875E",
"I!	c #7B6D4C",
"J!	c #7C6E4D",
"K!	c #8E7D58",
"L!	c #867755",
"M!	c #9F8D64",
"N!	c #9A875F",
"O!	c #8A7E65",
"P!	c #847F73",
"Q!	c #5090A5",
"R!	c #838871",
"S!	c #99875E",
"T!	c #99875D",
"U!	c #99865D",
"V!	c #98865D",
"W!	c #98855C",
"X!	c #928059",
"Y!	c #746546",
"Z!	c #97855C",
"[!	c #796B4B",
"]!	c #8C7C56",
"^!	c #827351",
"_!	c #9A8760",
"`!	c #95908A",
"a!	c #CCCDD5",
"b!	c #BEC8D3",
"c!	c #7EB4D0",
"d!	c #61929F",
"e!	c #8C8464",
"f!	c #97845C",
"g!	c #97845B",
"h!	c #96845B",
"i!	c #96835B",
"j!	c #927F58",
"k!	c #726445",
"l!	c #95835A",
"m!	c #78694A",
"n!	c #7A6C4C",
"o!	c #8A7A54",
"p!	c #6F6245",
"q!	c #807150",
"r!	c #6C5F43",
"s!	c #B1B1B6",
"t!	c #CFD0D8",
"u!	c #D1D2DA",
"v!	c #D2D3DB",
"w!	c #D0D4DC",
"x!	c #97BBCE",
"y!	c #798E89",
"z!	c #796D4E",
"{!	c #7B6B4A",
"|!	c #7B6C4A",
"}!	c #7C6C4A",
"~!	c #7C6C4B",
" #	c #7D6D4B",
"!#	c #7E6E4B",
"##	c #665A3E",
"$#	c #938058",
"%#	c #77694A",
"&#	c #8F7D56",
"'#	c #62563C",
"(#	c #544D3E",
")#	c #CDCED6",
"*#	c #D1D2D9",
"+#	c #D4D5DC",
",#	c #D6D7DD",
"-#	c #D9D9E0",
".#	c #DDDEE3",
"0#	c #B1BEC5",
"1#	c #858475",
"2#	c #5F543A",
"3#	c #5F533A",
"4#	c #5F5339",
"5#	c #685B3E",
"6#	c #917E56",
"7#	c #786949",
"8#	c #867550",
"9#	c #1A1710",
":#	c #13110B",
";#	c #5D6063",
"<#	c #D0D1D8",
"=#	c #D3D4DB",
">#	c #D8D8DF",
"?#	c #D8D9DF",
"@#	c #DCDDE2",
"A#	c #E1E2E7",
"B#	c #E5E5E9",
"C#	c #BEC0C4",
"D#	c #585859",
"E#	c #060606",
"F#	c #252016",
"G#	c #8F7C54",
"H#	c #796A4A",
"I#	c #7D6E4E",
"J#	c #84734F",
"K#	c #2C261A",
"L#	c #22231D",
"M#	c #9EAFBC",
"N#	c #D2D3DA",
"O#	c #D9DAE0",
"P#	c #D6D6DD",
"Q#	c #E2E2E7",
"R#	c #DCDCE2",
"S#	c #E8E9EC",
"T#	c #E9EAED",
"U#	c #DADBDC",
"V#	c #7A7A79",
"W#	c #1B1917",
"X#	c #292418",
"Y#	c #8C7A52",
"Z#	c #7F7050",
"[#	c #82714D",
"]#	c #3A3323",
"^#	c #35687D",
"_#	c #CBCED6",
"`#	c #D4D4DC",
"a#	c #D5D6DD",
"b#	c #DADBE1",
"c#	c #D7D8DE",
"d#	c #E4E4E8",
"e#	c #DCDDE3",
"f#	c #DBDCE2",
"g#	c #EEEEF1",
"h#	c #E0E0E6",
"i#	c #F5F5F7",
"j#	c #F8F8F9",
"k#	c #7B929B",
"l#	c #332D1E",
"m#	c #8A7850",
"n#	c #7C6D4D",
"o#	c #827352",
"p#	c #62563B",
"q#	c #443F2F",
"r#	c #517580",
"s#	c #908C87",
"t#	c #928E89",
"u#	c #94908A",
"v#	c #94918A",
"w#	c #95918B",
"x#	c #98948D",
"y#	c #97938D",
"z#	c #9C9890",
"{#	c #9B9790",
"|#	c #A39F96",
"}#	c #A4A097",
"~#	c #526362",
" $	c #443C2A",
"!$	c #6F6041",
"#$	c #7F704F",
"$$	c #857655",
"%$	c #7C6E4F",
"&$	c #AD9A6F",
"'$	c #706244",
"($	c #897A58",
")$	c #6F6143",
"*$	c #867756",
"+$	c #8E7E5C",
",$	c #AC996F",
"-$	c #AC996E",
".$	c #AA986D",
"0$	c #AA976D",
"1$	c #A8956B",
"2$	c #A7946A",
"3$	c #6C5F41",
"4$	c #8C7C59",
"5$	c #948360",
"6$	c #796B4D",
"7$	c #A8966B",
"8$	c #A69369",
"9$	c #B29F74",
":$	c #B3A075",
";$	c #AD9A70",
"<$	c #9C8A60",
"=$	c #9B895F",
">$	c #675A3D",
"?$	c #9C8B66",
"@$	c #736547",
"A$	c #564B34",
"B$	c #524831",
"C$	c #4E442F",
"D$	c #4A402C",
"E$	c #463D2A",
"F$	c #423A27",
"G$	c #544933",
"H$	c #8F7D55",
"I$	c #8E7C54",
"J$	c #8E7B53",
"K$	c #8D7A52",
"L$	c #8C7A51",
"M$	c #9A8964",
"N$	c #1D1A13",
"O$	c #4B4330",
"P$	c #665A3D",
"Q$	c #8D7B53",
"R$	c #8B7951",
"S$	c #8B7850",
"T$	c #8A7750",
"U$	c #89774F",
"V$	c #88764E",
"W$	c #87754D",
"X$	c #86744C",
"Y$	c #85734C",
"Z$	c #84724B",
"[$	c #83714A",
"]$	c #827049",
"^$	c #826F48",
"_$	c #816F48",
"`$	c #806E47",
"a$	c #7F6D46",
"b$	c #7E6C45",
"c$	c #4D4430",
"d$	c #191611",
"e$	c #5D5035",
"f$	c #7F6C46",
"g$	c #7D6B44",
"h$	c #7C6A43",
"i$	c #7B6942",
"j$	c #7A6842",
"k$	c #796741",
"l$	c #786640",
"m$	c #78653F",
"n$	c #77643E",
"o$	c #76643E",
"p$	c #75633D",
"q$	c #74623C",
"r$	c #73613B",
"s$	c #72603A",
"t$	c #715F3A",
"u$	c #705E39",
"v$	c #3B3320",
"w$	c #55482D",
"x$	c #715F39",
"y$	c #6F5D38",
"z$	c #6E5C37",
"{$	c #6D5B36",
"|$	c #6C5A35",
"}$	c #6C5935",
"~$	c #6B5934",
" %	c #6A5833",
"!%	c #695732",
"#%	c #685631",
"$%	c #675530",
"%%	c #665430",
"&%	c #65532F",
"'%	c #64522E",
"(%	c #63512D",
")%	c #372F1C",
"*%	c #423822",
"+%	c #544529",
",%	c #534528",
"-%	c #534428",
".%	c #524427",
"0%	c #514327",
"1%	c #504226",
"2%	c #4F4125",
"3%	c #4F4024",
"4%	c #4E4024",
"5%	c #4E3F24",
"6%	c #4D3F23",
"7%	c #4D3E22",
"8%	c #4C3E22",
"9%	c #2F2819",
":%	c #080705",
";%	c #070605",
"<%	c #060605",
"=%	c #050504",
"                                                                ",
"              # $ % % % % % % % % % & & & & & '                 ",
"            ( ) * + + + + , , , , , , , , + + - . 0             ",
"          ' 1 2 3 3 4 4 5 6 7 8 8 9 9 : ; ; < < = > ?           ",
"          @ < < < A B < C C C C C D C D C D D E D D F           ",
"          F G H I I I I I I I J K L M N O P Q R S T U           ",
"          V W X < Y Z Z Z Z [ ] ^ _ ` a b c d e f g h           ",
"          i j k l m m n g g g g o p p p q r s t u v w           ",
"          x y z { p q r s s s v | } } ~  ! !!!#!$!%!&!          ",
"          '!(!)!*!~  ! !+!N ,!-!.!0!1!2!3!3!4!5!6!7!8!          ",
"          9!:!;!T 3!<!=!>!?!@!A!B!B!C!D!D!D!E!F!G!H!I!          ",
"          J!K!L!M!N!O!P!Q!R!H!H!S!T!U!U!U!V!W!X!Y!Z![!          ",
"          I!]!^!_!F!`!a!b!c!d!e!Z!f!g!g!h!i!i!j!k!l!m!          ",
"          n!o!p!q!r!s!t!u!v!w!x!y!z!{!|!}!~! #!###$#%#          ",
"          n!&#'#'#(#)#*#u!+#,#-#.#0#1#2#3#3#4#4#5#6#7#          ",
"          f 8#9#:#;#<#=#*#>#+#?#@#A#B#C#D#E#! ! F#G#H#          ",
"          I#J#K#L#M#N#+#u!O#P#>#Q#R#R#S#T#U#V#W#X#Y#n!          ",
"          Z#[#]#^#_#`#`#a#?#b#c#d#e#f#g#h#i#j#k#l#m#n#          ",
"          o#p#q#r#s#t#t#u#v#u#w#x#y#y#z#{#|#}#~# $!$#$          ",
"          $$%$&$&$&$&$&$&$&$&$&$&$&$&$&$&$&$&$&$&$'$o#          ",
"          ($%$&$&$&$&$&$&$&$&$&$&$&$&$&$&$&$&$&$&$)$*$          ",
"          +$%$&$&$&$&$&$&$,$,$-$-$` ` .$0$a a 1$2$3$4$          ",
"          5$6$7$1$2$8$8$9$:$9$Z ] ;$` 8$3!<$=$D!H!>$F           ",
"          ?$@$D!H!S!V!?!'#A$B$C$D$E$F$G$H$I$J$K$L$3$M$          ",
"        N$O$P$Q$Y#R$S$T$U$V$W$X$Y$Z$[$]$^$_$`$a$b$B$c$d$        ",
"            e$a$f$b$g$h$i$j$k$l$m$n$o$p$q$r$s$t$u$v$            ",
"            w$s$x$u$y$z${$|$}$~$ %!%#%$%%%&%'%(%(%)%            ",
"            *%+%,%-%.%0%1%1%2%3%4%5%6%6%7%8%8%8%8%9%            ",
"                    :%;%;%<%<%<%<%=%=%<%<%<%;%;%                ",
"                                                                ",
"                                                                ",
"                                                                "};