/* XPM */ 
static const char * save_xpm[] = {
"32 25 203 2",
"  	c None",
"! 	c black",
"# 	c #4F4F4F",
"$ 	c #4A4A4A",
"% 	c #5C5C5C",
"& 	c #7B7B7B",
"' 	c #A6A6A6",
"( 	c #4D4D4D",
") 	c #434343",
"* 	c #424242",
"+ 	c #676767",
", 	c #949494",
"- 	c #8D8D8D",
". 	c #A0A0A0",
"0 	c #7A7A7A",
"1 	c #3E3E3E",
"2 	c #3A3A3A",
"3 	c #414040",
"4 	c #727272",
"5 	c #ADADAD",
"6 	c #D5D5D5",
"7 	c #D2D2D2",
"8 	c #989898",
"9 	c #787878",
": 	c #737373",
"; 	c #B3B2B2",
"< 	c #363636",
"= 	c #373737",
"> 	c #525252",
"? 	c #C5C5C5",
"@ 	c #EFEFEF",
"A 	c #E6E6E6",
"B 	c #DADADA",
"C 	c #CFCECE",
"D 	c #BBBBBB",
"E 	c #757575",
"F 	c #626262",
"G 	c #9C9B9B",
"H 	c #727171",
"I 	c #313131",
"J 	c #2E2D2D",
"K 	c #3B3B3B",
"L 	c #555555",
"M 	c #5A5A5A",
"N 	c #ABABAB",
"O 	c #FDFDFD",
"P 	c #F2F2F2",
"Q 	c #E4E4E4",
"R 	c #D7D7D7",
"S 	c #CBCBCB",
"T 	c #C0C0C0",
"U 	c #8E8E8E",
"V 	c #5D5D5D",
"W 	c #5A5959",
"X 	c #A1A1A1",
"Y 	c #313030",
"Z 	c #292828",
"[ 	c #545454",
"] 	c #605F5F",
"^ 	c #585858",
"_ 	c #E9E9E9",
"` 	c #F0F0F0",
"a 	c #E1E1E1",
"b 	c #D4D4D4",
"c 	c #C7C7C7",
"d 	c #BCBCBC",
"e 	c #B1B1B1",
"f 	c #787777",
"g 	c #616161",
"h 	c #373636",
"i 	c #282828",
"j 	c #242424",
"k 	c #222121",
"l 	c #565656",
"m 	c #5F5F5F",
"n 	c #5B5B5B",
"o 	c #575757",
"p 	c #535353",
"q 	c #504F4F",
"r 	c #EEEEEE",
"s 	c #DFDFDF",
"t 	c #D0D0D0",
"u 	c #C3C3C3",
"v 	c #ACACAC",
"w 	c #2C2C2C",
"x 	c #282727",
"y 	c #242323",
"z 	c #201F1F",
"{ 	c #1C1B1B",
"| 	c #262626",
"} 	c #585757",
"~ 	c #4B4B4B",
" !	c #DBDBDB",
"!!	c #BEBEBE",
"#!	c #797979",
"$!	c #3F3E3E",
"%!	c #302F2F",
"&!	c #2C2B2B",
"'!	c #232323",
"(!	c #181717",
")!	c #161515",
"*!	c #505050",
"+!	c #525151",
",!	c #4E4E4E",
"-!	c #464646",
".!	c #929292",
"0!	c #818080",
"1!	c #323232",
"2!	c #2E2E2E",
"3!	c #2B2A2A",
"4!	c #272626",
"5!	c #232222",
"6!	c #212020",
"7!	c #4A4949",
"8!	c #131313",
"9!	c #100F0F",
":!	c #1E1E1E",
";!	c #4C4C4C",
"<!	c #494949",
"=!	c #464545",
">!	c #424141",
"?!	c #353535",
"@!	c #323131",
"A!	c #2A2929",
"B!	c #262525",
"C!	c #252525",
"D!	c #BDBDBD",
"E!	c #DEDEDE",
"F!	c #0A0A0A",
"G!	c #090808",
"H!	c #454545",
"I!	c #414141",
"J!	c #3D3D3D",
"K!	c #3A3939",
"L!	c #363535",
"M!	c #2D2D2D",
"N!	c #292929",
"O!	c #5E5D5D",
"P!	c #E2E2E2",
"Q!	c #E0E0E0",
"R!	c #CCCCCC",
"S!	c #DCDCDC",
"T!	c #989797",
"U!	c #060505",
"V!	c #020101",
"W!	c #181818",
"X!	c #393939",
"Y!	c #2D2C2C",
"Z!	c #2B2B2B",
"[!	c #5E5E5E",
"]!	c #BABABA",
"^!	c #E5E5E5",
"_!	c #CFCFCF",
"`!	c #E3E5E9",
"a!	c #E3E3E3",
"b!	c #010000",
"c!	c #050404",
"d!	c #383838",
"e!	c #353434",
"f!	c #E8E8E8",
"g!	c #CECECE",
"h!	c #EAEAEA",
"i!	c #DFE4EB",
"j!	c #96BAF4",
"k!	c #D1DEF4",
"l!	c #9A9A9A",
"m!	c #1A1919",
"n!	c #3C3B3B",
"o!	c #ECECEC",
"p!	c #D3D3D3",
"q!	c #D1D1D1",
"r!	c #EBEBEB",
"s!	c #E4E5E5",
"t!	c #C0D6F9",
"u!	c #C7D8F3",
"v!	c #111010",
"w!	c #272727",
"x!	c #CECDCD",
"y!	c #F1F1F1",
"z!	c #EDEDED",
"{!	c #E7E7E7",
"|!	c #9D9D9D",
"}!	c #1F1E1E",
"~!	c #686868",
" #	c #F6F6F6",
"!#	c #A8A7A7",
"##	c #1B1A1A",
"$#	c #202020",
"%#	c #161616",
"&#	c #131212",
"'#	c #5F5E5E",
"(#	c #FCFCFC",
")#	c #F4F4F4",
"*#	c #F5F5F5",
"+#	c #4F4E4E",
",#	c #111111",
"-#	c #0D0D0D",
".#	c #0E0D0D",
"0#	c #939292",
"1#	c #9E9E9E",
"2#	c #141313",
"3#	c #191818",
"4#	c #222222",
"                                  # $                           ",
"                              % & ' ( ) *                       ",
"                          + , - & . 0 1 2 3                     ",
"                      4 5 6 7 8 9 : ; 3 < =                     ",
"                > & ? @ A B C D E F G H I J K                   ",
"            L M % N O P Q R S T U V W X Y Z J                   ",
"        [ % ] % ^ + _ ` a b c d e f g h i j k =                 ",
"        l m n o p q ' r s t u v : K w x y z { |                 ",
"          } o p # ~ V  ! !!!#!$!%!&!x '!z { (!)!                ",
"          *!+!,!$ -!* .!0!3 1!2!3!4!5!6!o 7!8!9!:!              ",
"            ;!<!=!>!1 2 ?!@!J A!B!C!V D!E! !@!F!G!              ",
"            <!H!I!J!K!L!I M!N!Z O!D P!Q!R!S!T!U!V!W!            ",
"              >!J!X!?!I Y!Z![!]!^!Q _!R!Q!`!a!3!b!c!            ",
"              * d!e!Y Y!M D f!f!t g!^!h!i!j!k!l!b!b!m!          ",
"                < %!&!n!Q o!p!q!_ r r!r!s!t!u!h!v!c!:!          ",
"                2 Z!w!Z x!A r y!z!h!Q {!@ r r!|!:!              ",
"                  &!5!}!~! #P h!^!f!r @ r !#L                   ",
"                  1!}!##{ t r f!r!` P ' [                       ",
"                    $#%#&#'#(#)#*#' +#                          ",
"                    w!,#-#.#0#1#$ '!                            ",
"                      2#G!G!3#4#                                ",
"                      4###C!                                    ",
"                                                                ",
"                                                                ",
"                                                                "};