/* XPM */ 
static const char * search_re_xpm[] = {
"18 12 2 1",
" 	c None",
"!	c black",
"   !!!!    !!  !!!",
"  !!!!!!   ! ! !  ",
" !!!   !!  !!  !!!",
"!!!     !! ! ! !  ",
"!!      !! ! ! !!!",
"!!      !!        ",
"!!!     !!        ",
" !!!   !!    !!!!!",
"  !!!!!!!!    !!! ",
"   !!!!  !!    !  ",
"          !!      ",
"           !!     "};