/* XPM */ 
static const char * search_xpm[] = {
"18 12 4 1",
" 	c None",
"!	c black",
"#	c #C0C0C0",
"$	c #808080",
"   !!!!           ",
"  !!!!!!          ",
" !!!   !!         ",
"!!!     !!        ",
"!!      !!        ",
"!!      !!   !!!!!",
"!!!     !!    !!! ",
" !!!   !!      !  ",
"  !!!!!!!!        ",
"   !!!!  !!       ",
"          !!      ",
"           !!     "};
